<?xml version="1.0" encoding="UTF-8" standalone="no"?>
<!DOCTYPE svg PUBLIC "-//W3C//DTD SVG 1.1//EN"
 "http://www.w3.org/Graphics/SVG/1.1/DTD/svg11.dtd">
<!-- Generated by graphviz version 2.47.0 (20210316.0004)
 -->
<!-- Title: dependencies Pages: 1 -->
<svg width="1324pt" height="284pt"
 viewBox="0.00 0.00 1324.00 284.00" xmlns="http://www.w3.org/2000/svg" xmlns:xlink="http://www.w3.org/1999/xlink">
<g id="graph0" class="graph" transform="scale(1 1) rotate(0) translate(4 280)">
<title>dependencies</title>
<polygon fill="white" stroke="transparent" points="-4,4 -4,-280 1320,-280 1320,4 -4,4"/>
<text text-anchor="start" x="637.01" y="-42.4" font-family="Times-12" font-weight="bold" font-size="14.00">Legend</text>
<polygon fill="#ffffb3" stroke="transparent" points="424,-10 424,-30 444,-30 444,-10 424,-10"/>
<text text-anchor="start" x="447.63" y="-15.4" font-family="Times-12" font-size="14.00"> &#160;Declarations</text>
<polygon fill="#8dd3c7" stroke="transparent" points="537,-10 537,-30 557,-30 557,-10 537,-10"/>
<text text-anchor="start" x="560.73" y="-15.4" font-family="Times-12" font-size="14.00"> &#160;Module</text>
<polygon fill="#80b1d3" stroke="transparent" points="623,-10 623,-30 643,-30 643,-10 623,-10"/>
<text text-anchor="start" x="646.78" y="-15.4" font-family="Times-12" font-size="14.00"> &#160;Bootstrap</text>
<polygon fill="#fdb462" stroke="transparent" points="720,-10 720,-30 740,-30 740,-10 720,-10"/>
<text text-anchor="start" x="743.67" y="-15.4" font-family="Times-12" font-size="14.00"> &#160;Providers</text>
<polygon fill="#fb8072" stroke="transparent" points="816,-10 816,-30 836,-30 836,-10 816,-10"/>
<text text-anchor="start" x="839.73" y="-15.4" font-family="Times-12" font-size="14.00"> &#160;Exports</text>
<g id="clust1" class="cluster">
<title>cluster_DashboardModule</title>
<polygon fill="none" stroke="black" stroke-dasharray="1,5" points="8,-70 8,-268 1308,-268 1308,-70 8,-70"/>
</g>
<g id="clust9" class="cluster">
<title>cluster_DashboardModule_imports</title>
<polygon fill="none" stroke="black" points="994,-78 994,-130 1300,-130 1300,-78 994,-78"/>
</g>
<g id="clust2" class="cluster">
<title>cluster_DashboardModule_declarations</title>
<polygon fill="none" stroke="black" points="16,-78 16,-130 986,-130 986,-78 16,-78"/>
</g>
<g id="clust10" class="cluster">
<title>cluster_DashboardModule_exports</title>
<polygon fill="none" stroke="black" points="493,-208 493,-260 788,-260 788,-208 493,-208"/>
</g>
<!-- ApiErrorComponent -->
<g id="node1" class="node">
<title>ApiErrorComponent</title>
<polygon fill="#ffffb3" stroke="black" points="977.86,-122 846.14,-122 846.14,-86 977.86,-86 977.86,-122"/>
<text text-anchor="middle" x="912" y="-99.8" font-family="Times,serif" font-size="14.00">ApiErrorComponent</text>
</g>
<!-- DashboardModule -->
<g id="node7" class="node">
<title>DashboardModule</title>
<polygon fill="#8dd3c7" stroke="black" points="698.19,-187 695.19,-191 674.19,-191 671.19,-187 577.81,-187 577.81,-151 698.19,-151 698.19,-187"/>
<text text-anchor="middle" x="638" y="-164.8" font-family="Times,serif" font-size="14.00">DashboardModule</text>
</g>
<!-- ApiErrorComponent&#45;&gt;DashboardModule -->
<g id="edge1" class="edge">
<title>ApiErrorComponent&#45;&gt;DashboardModule</title>
<path fill="none" stroke="black" d="M912,-122.03C912,-138.4 912,-160 912,-160 912,-160 708.13,-160 708.13,-160"/>
<polygon fill="black" stroke="black" points="708.13,-156.5 698.13,-160 708.13,-163.5 708.13,-156.5"/>
</g>
<!-- ConfirmationDialogComponent -->
<g id="node2" class="node">
<title>ConfirmationDialogComponent</title>
<polygon fill="#ffffb3" stroke="black" points="828.37,-122 633.63,-122 633.63,-86 828.37,-86 828.37,-122"/>
<text text-anchor="middle" x="731" y="-99.8" font-family="Times,serif" font-size="14.00">ConfirmationDialogComponent</text>
</g>
<!-- ConfirmationDialogComponent&#45;&gt;DashboardModule -->
<g id="edge2" class="edge">
<title>ConfirmationDialogComponent&#45;&gt;DashboardModule</title>
<path fill="none" stroke="black" d="M665.83,-122.11C665.83,-122.11 665.83,-140.99 665.83,-140.99"/>
<polygon fill="black" stroke="black" points="662.33,-140.99 665.83,-150.99 669.33,-140.99 662.33,-140.99"/>
</g>
<!-- DashboardComponent -->
<g id="node3" class="node">
<title>DashboardComponent</title>
<polygon fill="#ffffb3" stroke="black" points="615.97,-122 474.03,-122 474.03,-86 615.97,-86 615.97,-122"/>
<text text-anchor="middle" x="545" y="-99.8" font-family="Times,serif" font-size="14.00">DashboardComponent</text>
</g>
<!-- DashboardComponent&#45;&gt;DashboardModule -->
<g id="edge3" class="edge">
<title>DashboardComponent&#45;&gt;DashboardModule</title>
<path fill="none" stroke="black" d="M596.95,-122.11C596.95,-122.11 596.95,-140.99 596.95,-140.99"/>
<polygon fill="black" stroke="black" points="593.45,-140.99 596.95,-150.99 600.45,-140.99 593.45,-140.99"/>
</g>
<!-- HeaderComponent -->
<g id="node4" class="node">
<title>HeaderComponent</title>
<polygon fill="#ffffb3" stroke="black" points="455.74,-122 334.26,-122 334.26,-86 455.74,-86 455.74,-122"/>
<text text-anchor="middle" x="395" y="-99.8" font-family="Times,serif" font-size="14.00">HeaderComponent</text>
</g>
<!-- HeaderComponent&#45;&gt;DashboardModule -->
<g id="edge4" class="edge">
<title>HeaderComponent&#45;&gt;DashboardModule</title>
<path fill="none" stroke="black" d="M395,-122.03C395,-138.4 395,-160 395,-160 395,-160 567.62,-160 567.62,-160"/>
<polygon fill="black" stroke="black" points="567.62,-163.5 577.62,-160 567.62,-156.5 567.62,-163.5"/>
</g>
<!-- ServerErrorComponent -->
<g id="node5" class="node">
<title>ServerErrorComponent</title>
<polygon fill="#ffffb3" stroke="black" points="315.9,-122 168.1,-122 168.1,-86 315.9,-86 315.9,-122"/>
<text text-anchor="middle" x="242" y="-99.8" font-family="Times,serif" font-size="14.00">ServerErrorComponent</text>
</g>
<!-- ServerErrorComponent&#45;&gt;DashboardModule -->
<g id="edge5" class="edge">
<title>ServerErrorComponent&#45;&gt;DashboardModule</title>
<path fill="none" stroke="black" d="M242,-122.11C242,-141.34 242,-169 242,-169 242,-169 567.86,-169 567.86,-169"/>
<polygon fill="black" stroke="black" points="567.86,-172.5 577.86,-169 567.86,-165.5 567.86,-172.5"/>
</g>
<!-- SidenavComponent -->
<g id="node6" class="node">
<title>SidenavComponent</title>
<polygon fill="#ffffb3" stroke="black" points="150.44,-122 23.56,-122 23.56,-86 150.44,-86 150.44,-122"/>
<text text-anchor="middle" x="87" y="-99.8" font-family="Times,serif" font-size="14.00">SidenavComponent</text>
</g>
<!-- SidenavComponent&#45;&gt;DashboardModule -->
<g id="edge6" class="edge">
<title>SidenavComponent&#45;&gt;DashboardModule</title>
<path fill="none" stroke="black" d="M87,-122.29C87,-144.21 87,-178 87,-178 87,-178 567.72,-178 567.72,-178"/>
<polygon fill="black" stroke="black" points="567.72,-181.5 577.72,-178 567.72,-174.5 567.72,-181.5"/>
</g>
<!-- ApiErrorComponent  -->
<g id="node10" class="node">
<title>ApiErrorComponent </title>
<polygon fill="#fb8072" stroke="black" points="779.86,-252 644.14,-252 644.14,-216 779.86,-216 779.86,-252"/>
<text text-anchor="middle" x="712" y="-229.8" font-family="Times,serif" font-size="14.00">ApiErrorComponent </text>
</g>
<!-- DashboardModule&#45;&gt;ApiErrorComponent  -->
<g id="edge9" class="edge">
<title>DashboardModule&#45;&gt;ApiErrorComponent </title>
<path fill="none" stroke="black" stroke-dasharray="5,2" d="M671.21,-187.11C671.21,-187.11 671.21,-205.99 671.21,-205.99"/>
<polygon fill="black" stroke="black" points="667.71,-205.99 671.21,-215.99 674.71,-205.99 667.71,-205.99"/>
</g>
<!-- HeaderComponent  -->
<g id="node11" class="node">
<title>HeaderComponent </title>
<polygon fill="#fb8072" stroke="black" points="626.74,-252 501.26,-252 501.26,-216 626.74,-216 626.74,-252"/>
<text text-anchor="middle" x="564" y="-229.8" font-family="Times,serif" font-size="14.00">HeaderComponent </text>
</g>
<!-- DashboardModule&#45;&gt;HeaderComponent  -->
<g id="edge10" class="edge">
<title>DashboardModule&#45;&gt;HeaderComponent </title>
<path fill="none" stroke="black" stroke-dasharray="5,2" d="M602.26,-187.11C602.26,-187.11 602.26,-205.99 602.26,-205.99"/>
<polygon fill="black" stroke="black" points="598.76,-205.99 602.26,-215.99 605.76,-205.99 598.76,-205.99"/>
</g>
<!-- DashboardRoutingModule -->
<g id="node8" class="node">
<title>DashboardRoutingModule</title>
<polygon fill="#8dd3c7" stroke="black" points="1291.81,-122 1288.81,-126 1267.81,-126 1264.81,-122 1126.19,-122 1126.19,-86 1291.81,-86 1291.81,-122"/>
<text text-anchor="middle" x="1209" y="-99.8" font-family="Times,serif" font-size="14.00">DashboardRoutingModule</text>
</g>
<!-- DashboardRoutingModule&#45;&gt;DashboardModule -->
<g id="edge7" class="edge">
<title>DashboardRoutingModule&#45;&gt;DashboardModule</title>
<path fill="none" stroke="black" d="M1209,-122.29C1209,-144.21 1209,-178 1209,-178 1209,-178 708.3,-178 708.3,-178"/>
<polygon fill="black" stroke="black" points="708.3,-174.5 698.3,-178 708.3,-181.5 708.3,-174.5"/>
</g>
<!-- MaterialModule -->
<g id="node9" class="node">
<title>MaterialModule</title>
<polygon fill="#8dd3c7" stroke="black" points="1108.47,-122 1105.47,-126 1084.47,-126 1081.47,-122 1001.53,-122 1001.53,-86 1108.47,-86 1108.47,-122"/>
<text text-anchor="middle" x="1055" y="-99.8" font-family="Times,serif" font-size="14.00">MaterialModule</text>
</g>
<!-- MaterialModule&#45;&gt;DashboardModule -->
<g id="edge8" class="edge">
<title>MaterialModule&#45;&gt;DashboardModule</title>
<path fill="none" stroke="black" d="M1055,-122.11C1055,-141.34 1055,-169 1055,-169 1055,-169 708.19,-169 708.19,-169"/>
<polygon fill="black" stroke="black" points="708.19,-165.5 698.19,-169 708.19,-172.5 708.19,-165.5"/>
</g>
</g>
</svg>
