<?xml version="1.0" encoding="UTF-8" standalone="no"?>
<!DOCTYPE svg PUBLIC "-//W3C//DTD SVG 1.1//EN"
 "http://www.w3.org/Graphics/SVG/1.1/DTD/svg11.dtd">
<!-- Generated by graphviz version 2.47.0 (20210316.0004)
 -->
<!-- Title: dependencies Pages: 1 -->
<svg width="959pt" height="211pt"
 viewBox="0.00 0.00 959.00 211.00" xmlns="http://www.w3.org/2000/svg" xmlns:xlink="http://www.w3.org/1999/xlink">
<g id="graph0" class="graph" transform="scale(1 1) rotate(0) translate(4 207)">
<title>dependencies</title>
<polygon fill="white" stroke="transparent" points="-4,4 -4,-207 955,-207 955,4 -4,4"/>
<text text-anchor="start" x="454.51" y="-42.4" font-family="Times-12" font-weight="bold" font-size="14.00">Legend</text>
<polygon fill="#ffffb3" stroke="transparent" points="241.5,-10 241.5,-30 261.5,-30 261.5,-10 241.5,-10"/>
<text text-anchor="start" x="265.13" y="-15.4" font-family="Times-12" font-size="14.00"> &#160;Declarations</text>
<polygon fill="#8dd3c7" stroke="transparent" points="354.5,-10 354.5,-30 374.5,-30 374.5,-10 354.5,-10"/>
<text text-anchor="start" x="378.23" y="-15.4" font-family="Times-12" font-size="14.00"> &#160;Module</text>
<polygon fill="#80b1d3" stroke="transparent" points="440.5,-10 440.5,-30 460.5,-30 460.5,-10 440.5,-10"/>
<text text-anchor="start" x="464.28" y="-15.4" font-family="Times-12" font-size="14.00"> &#160;Bootstrap</text>
<polygon fill="#fdb462" stroke="transparent" points="537.5,-10 537.5,-30 557.5,-30 557.5,-10 537.5,-10"/>
<text text-anchor="start" x="561.17" y="-15.4" font-family="Times-12" font-size="14.00"> &#160;Providers</text>
<polygon fill="#fb8072" stroke="transparent" points="633.5,-10 633.5,-30 653.5,-30 653.5,-10 633.5,-10"/>
<text text-anchor="start" x="657.23" y="-15.4" font-family="Times-12" font-size="14.00"> &#160;Exports</text>
<g id="clust1" class="cluster">
<title>cluster_CloudOptionsModule</title>
<polygon fill="none" stroke="black" stroke-dasharray="1,5" points="8,-70 8,-195 943,-195 943,-70 8,-70"/>
</g>
<g id="clust6" class="cluster">
<title>cluster_CloudOptionsModule_imports</title>
<polygon fill="none" stroke="black" points="494,-78 494,-130 935,-130 935,-78 494,-78"/>
</g>
<g id="clust2" class="cluster">
<title>cluster_CloudOptionsModule_declarations</title>
<polygon fill="none" stroke="black" points="16,-78 16,-130 486,-130 486,-78 16,-78"/>
</g>
<!-- CarsDataComponent -->
<g id="node1" class="node">
<title>CarsDataComponent</title>
<polygon fill="#ffffb3" stroke="black" points="477.92,-122 344.08,-122 344.08,-86 477.92,-86 477.92,-122"/>
<text text-anchor="middle" x="411" y="-99.8" font-family="Times,serif" font-size="14.00">CarsDataComponent</text>
</g>
<!-- CloudOptionsModule -->
<g id="node4" class="node">
<title>CloudOptionsModule</title>
<polygon fill="#8dd3c7" stroke="black" points="550.11,-187 547.11,-191 526.11,-191 523.11,-187 411.89,-187 411.89,-151 550.11,-151 550.11,-187"/>
<text text-anchor="middle" x="481" y="-164.8" font-family="Times,serif" font-size="14.00">CloudOptionsModule</text>
</g>
<!-- CarsDataComponent&#45;&gt;CloudOptionsModule -->
<g id="edge1" class="edge">
<title>CarsDataComponent&#45;&gt;CloudOptionsModule</title>
<path fill="none" stroke="black" d="M444.83,-122.11C444.83,-122.11 444.83,-140.99 444.83,-140.99"/>
<polygon fill="black" stroke="black" points="441.33,-140.99 444.83,-150.99 448.33,-140.99 441.33,-140.99"/>
</g>
<!-- CloudOptionsComponent -->
<g id="node2" class="node">
<title>CloudOptionsComponent</title>
<polygon fill="#ffffb3" stroke="black" points="325.89,-122 166.11,-122 166.11,-86 325.89,-86 325.89,-122"/>
<text text-anchor="middle" x="246" y="-99.8" font-family="Times,serif" font-size="14.00">CloudOptionsComponent</text>
</g>
<!-- CloudOptionsComponent&#45;&gt;CloudOptionsModule -->
<g id="edge2" class="edge">
<title>CloudOptionsComponent&#45;&gt;CloudOptionsModule</title>
<path fill="none" stroke="black" d="M246,-122.02C246,-139.37 246,-163 246,-163 246,-163 401.76,-163 401.76,-163"/>
<polygon fill="black" stroke="black" points="401.76,-166.5 411.76,-163 401.76,-159.5 401.76,-166.5"/>
</g>
<!-- TabBarComponent -->
<g id="node3" class="node">
<title>TabBarComponent</title>
<polygon fill="#ffffb3" stroke="black" points="147.81,-122 24.19,-122 24.19,-86 147.81,-86 147.81,-122"/>
<text text-anchor="middle" x="86" y="-99.8" font-family="Times,serif" font-size="14.00">TabBarComponent</text>
</g>
<!-- TabBarComponent&#45;&gt;CloudOptionsModule -->
<g id="edge3" class="edge">
<title>TabBarComponent&#45;&gt;CloudOptionsModule</title>
<path fill="none" stroke="black" d="M86,-122.28C86,-143.32 86,-175 86,-175 86,-175 401.74,-175 401.74,-175"/>
<polygon fill="black" stroke="black" points="401.74,-178.5 411.74,-175 401.74,-171.5 401.74,-178.5"/>
</g>
<!-- CloudOptionsRoutingModule -->
<g id="node5" class="node">
<title>CloudOptionsRoutingModule</title>
<polygon fill="#8dd3c7" stroke="black" points="926.73,-122 923.73,-126 902.73,-126 899.73,-122 743.27,-122 743.27,-86 926.73,-86 926.73,-122"/>
<text text-anchor="middle" x="835" y="-99.8" font-family="Times,serif" font-size="14.00">CloudOptionsRoutingModule</text>
</g>
<!-- CloudOptionsRoutingModule&#45;&gt;CloudOptionsModule -->
<g id="edge4" class="edge">
<title>CloudOptionsRoutingModule&#45;&gt;CloudOptionsModule</title>
<path fill="none" stroke="black" d="M835,-122.28C835,-143.32 835,-175 835,-175 835,-175 560.1,-175 560.1,-175"/>
<polygon fill="black" stroke="black" points="560.1,-171.5 550.1,-175 560.1,-178.5 560.1,-171.5"/>
</g>
<!-- MaterialModule -->
<g id="node6" class="node">
<title>MaterialModule</title>
<polygon fill="#8dd3c7" stroke="black" points="725.47,-122 722.47,-126 701.47,-126 698.47,-122 618.53,-122 618.53,-86 725.47,-86 725.47,-122"/>
<text text-anchor="middle" x="672" y="-99.8" font-family="Times,serif" font-size="14.00">MaterialModule</text>
</g>
<!-- MaterialModule&#45;&gt;CloudOptionsModule -->
<g id="edge5" class="edge">
<title>MaterialModule&#45;&gt;CloudOptionsModule</title>
<path fill="none" stroke="black" d="M672,-122.02C672,-139.37 672,-163 672,-163 672,-163 560.23,-163 560.23,-163"/>
<polygon fill="black" stroke="black" points="560.23,-159.5 550.23,-163 560.23,-166.5 560.23,-159.5"/>
</g>
<!-- SharedModule -->
<g id="node7" class="node">
<title>SharedModule</title>
<polygon fill="#8dd3c7" stroke="black" points="600.42,-122 597.42,-126 576.42,-126 573.42,-122 501.58,-122 501.58,-86 600.42,-86 600.42,-122"/>
<text text-anchor="middle" x="551" y="-99.8" font-family="Times,serif" font-size="14.00">SharedModule</text>
</g>
<!-- SharedModule&#45;&gt;CloudOptionsModule -->
<g id="edge6" class="edge">
<title>SharedModule&#45;&gt;CloudOptionsModule</title>
<path fill="none" stroke="black" d="M525.92,-122.11C525.92,-122.11 525.92,-140.99 525.92,-140.99"/>
<polygon fill="black" stroke="black" points="522.42,-140.99 525.92,-150.99 529.42,-140.99 522.42,-140.99"/>
</g>
</g>
</svg>
