<?xml version="1.0" encoding="UTF-8" standalone="no"?>
<!DOCTYPE svg PUBLIC "-//W3C//DTD SVG 1.1//EN"
 "http://www.w3.org/Graphics/SVG/1.1/DTD/svg11.dtd">
<!-- Generated by graphviz version 2.47.0 (20210316.0004)
 -->
<!-- Title: dependencies Pages: 1 -->
<svg width="4545pt" height="298pt"
 viewBox="0.00 0.00 4545.00 298.00" xmlns="http://www.w3.org/2000/svg" xmlns:xlink="http://www.w3.org/1999/xlink">
<g id="graph0" class="graph" transform="scale(1 1) rotate(0) translate(4 294)">
<title>dependencies</title>
<polygon fill="white" stroke="transparent" points="-4,4 -4,-294 4541,-294 4541,4 -4,4"/>
<text text-anchor="start" x="2247.51" y="-42.4" font-family="Times-12" font-weight="bold" font-size="14.00">Legend</text>
<polygon fill="#ffffb3" stroke="transparent" points="2034.5,-10 2034.5,-30 2054.5,-30 2054.5,-10 2034.5,-10"/>
<text text-anchor="start" x="2058.13" y="-15.4" font-family="Times-12" font-size="14.00"> &#160;Declarations</text>
<polygon fill="#8dd3c7" stroke="transparent" points="2147.5,-10 2147.5,-30 2167.5,-30 2167.5,-10 2147.5,-10"/>
<text text-anchor="start" x="2171.23" y="-15.4" font-family="Times-12" font-size="14.00"> &#160;Module</text>
<polygon fill="#80b1d3" stroke="transparent" points="2233.5,-10 2233.5,-30 2253.5,-30 2253.5,-10 2233.5,-10"/>
<text text-anchor="start" x="2257.28" y="-15.4" font-family="Times-12" font-size="14.00"> &#160;Bootstrap</text>
<polygon fill="#fdb462" stroke="transparent" points="2330.5,-10 2330.5,-30 2350.5,-30 2350.5,-10 2330.5,-10"/>
<text text-anchor="start" x="2354.17" y="-15.4" font-family="Times-12" font-size="14.00"> &#160;Providers</text>
<polygon fill="#fb8072" stroke="transparent" points="2426.5,-10 2426.5,-30 2446.5,-30 2446.5,-10 2426.5,-10"/>
<text text-anchor="start" x="2450.23" y="-15.4" font-family="Times-12" font-size="14.00"> &#160;Exports</text>
<g id="clust1" class="cluster">
<title>cluster_AppModule</title>
<polygon fill="none" stroke="black" stroke-dasharray="1,5" points="8,-70 8,-282 423,-282 423,-70 8,-70"/>
</g>
<g id="clust2" class="cluster">
<title>cluster_AppModule_declarations</title>
<polygon fill="none" stroke="black" points="16,-78 16,-130 138,-130 138,-78 16,-78"/>
</g>
<g id="clust4" class="cluster">
<title>cluster_AppModule_imports</title>
<polygon fill="none" stroke="black" points="146,-78 146,-130 415,-130 415,-78 146,-78"/>
</g>
<g id="clust6" class="cluster">
<title>cluster_AppModule_bootstrap</title>
<polygon fill="none" stroke="black" points="156,-222 156,-274 280,-274 280,-222 156,-222"/>
</g>
<g id="clust14" class="cluster">
<title>cluster_CartModule</title>
<polygon fill="none" stroke="black" stroke-dasharray="1,5" points="2525,-146 2525,-274 3107,-274 3107,-146 2525,-146"/>
</g>
<g id="clust15" class="cluster">
<title>cluster_CartModule_declarations</title>
<polygon fill="none" stroke="black" points="2823,-154 2823,-206 3099,-206 3099,-154 2823,-154"/>
</g>
<g id="clust18" class="cluster">
<title>cluster_CartModule_imports</title>
<polygon fill="none" stroke="black" points="2533,-154 2533,-206 2815,-206 2815,-154 2533,-154"/>
</g>
<g id="clust28" class="cluster">
<title>cluster_CloudOptionsModule</title>
<polygon fill="none" stroke="black" stroke-dasharray="1,5" points="1654,-146 1654,-274 2463,-274 2463,-146 1654,-146"/>
</g>
<g id="clust29" class="cluster">
<title>cluster_CloudOptionsModule_declarations</title>
<polygon fill="none" stroke="black" points="1986,-154 1986,-206 2455,-206 2455,-154 1986,-154"/>
</g>
<g id="clust33" class="cluster">
<title>cluster_CloudOptionsModule_imports</title>
<polygon fill="none" stroke="black" points="1662,-154 1662,-206 1978,-206 1978,-154 1662,-154"/>
</g>
<g id="clust43" class="cluster">
<title>cluster_DashboardModule</title>
<polygon fill="none" stroke="black" stroke-dasharray="1,5" points="1740,-70 1740,-138 3219,-138 3219,-70 1740,-70"/>
</g>
<g id="clust44" class="cluster">
<title>cluster_DashboardModule_declarations</title>
<polygon fill="none" stroke="black" points="2241,-78 2241,-130 3211,-130 3211,-78 2241,-78"/>
</g>
<g id="clust51" class="cluster">
<title>cluster_DashboardModule_imports</title>
<polygon fill="none" stroke="black" points="2051,-78 2051,-130 2233,-130 2233,-78 2051,-78"/>
</g>
<g id="clust52" class="cluster">
<title>cluster_DashboardModule_exports</title>
<polygon fill="none" stroke="black" points="1748,-78 1748,-130 2043,-130 2043,-78 1748,-78"/>
</g>
<g id="clust61" class="cluster">
<title>cluster_HomeModule</title>
<polygon fill="none" stroke="black" stroke-dasharray="1,5" points="3227,-70 3227,-282 4529,-282 4529,-70 3227,-70"/>
</g>
<g id="clust62" class="cluster">
<title>cluster_HomeModule_declarations</title>
<polygon fill="none" stroke="black" points="3543,-78 3543,-130 4521,-130 4521,-78 3543,-78"/>
</g>
<g id="clust69" class="cluster">
<title>cluster_HomeModule_imports</title>
<polygon fill="none" stroke="black" points="3235,-78 3235,-130 3535,-130 3535,-78 3235,-78"/>
</g>
<g id="clust70" class="cluster">
<title>cluster_HomeModule_exports</title>
<polygon fill="none" stroke="black" points="3700,-222 3700,-274 3836,-274 3836,-222 3700,-222"/>
</g>
<g id="clust85" class="cluster">
<title>cluster_SharedModule</title>
<polygon fill="none" stroke="black" stroke-dasharray="1,5" points="431,-214 431,-282 1646,-282 1646,-214 431,-214"/>
</g>
<g id="clust86" class="cluster">
<title>cluster_SharedModule_declarations</title>
<polygon fill="none" stroke="black" points="1048,-222 1048,-274 1638,-274 1638,-222 1048,-222"/>
</g>
<g id="clust91" class="cluster">
<title>cluster_SharedModule_exports</title>
<polygon fill="none" stroke="black" points="439,-222 439,-274 1040,-274 1040,-222 439,-222"/>
</g>
<!-- AppComponent -->
<g id="node1" class="node">
<title>AppComponent</title>
<polygon fill="#ffffb3" stroke="black" points="129.94,-122 24.06,-122 24.06,-86 129.94,-86 129.94,-122"/>
<text text-anchor="middle" x="77" y="-99.8" font-family="Times,serif" font-size="14.00">AppComponent</text>
</g>
<!-- AppModule -->
<g id="node2" class="node">
<title>AppModule</title>
<polygon fill="#8dd3c7" stroke="black" points="259.66,-198 256.66,-202 235.66,-202 232.66,-198 176.34,-198 176.34,-162 259.66,-162 259.66,-198"/>
<text text-anchor="middle" x="218" y="-175.8" font-family="Times,serif" font-size="14.00">AppModule</text>
</g>
<!-- AppComponent&#45;&gt;AppModule -->
<g id="edge1" class="edge">
<title>AppComponent&#45;&gt;AppModule</title>
<path fill="none" stroke="black" d="M77,-122.01C77,-144.49 77,-180 77,-180 77,-180 166.08,-180 166.08,-180"/>
<polygon fill="black" stroke="black" points="166.08,-183.5 176.08,-180 166.08,-176.5 166.08,-183.5"/>
</g>
<!-- AppComponent  -->
<g id="node5" class="node">
<title>AppComponent </title>
<polygon fill="#80b1d3" stroke="black" points="272.44,-266 163.56,-266 163.56,-230 272.44,-230 272.44,-266"/>
<text text-anchor="middle" x="218" y="-243.8" font-family="Times,serif" font-size="14.00">AppComponent </text>
</g>
<!-- AppModule&#45;&gt;AppComponent  -->
<g id="edge4" class="edge">
<title>AppModule&#45;&gt;AppComponent </title>
<path fill="none" stroke="black" stroke-dasharray="1,5" d="M218,-198.22C218,-198.22 218,-219.73 218,-219.73"/>
<polygon fill="black" stroke="black" points="214.5,-219.73 218,-229.73 221.5,-219.73 214.5,-219.73"/>
</g>
<!-- AppRoutingModule -->
<g id="node3" class="node">
<title>AppRoutingModule</title>
<polygon fill="#8dd3c7" stroke="black" points="282.27,-122 279.27,-126 258.27,-126 255.27,-122 153.73,-122 153.73,-86 282.27,-86 282.27,-122"/>
<text text-anchor="middle" x="218" y="-99.8" font-family="Times,serif" font-size="14.00">AppRoutingModule</text>
</g>
<!-- AppRoutingModule&#45;&gt;AppModule -->
<g id="edge2" class="edge">
<title>AppRoutingModule&#45;&gt;AppModule</title>
<path fill="none" stroke="black" d="M218,-122.01C218,-122.01 218,-151.85 218,-151.85"/>
<polygon fill="black" stroke="black" points="214.5,-151.85 218,-161.85 221.5,-151.85 214.5,-151.85"/>
</g>
<!-- MaterialModule -->
<g id="node4" class="node">
<title>MaterialModule</title>
<polygon fill="#8dd3c7" stroke="black" points="407.47,-122 404.47,-126 383.47,-126 380.47,-122 300.53,-122 300.53,-86 407.47,-86 407.47,-122"/>
<text text-anchor="middle" x="354" y="-99.8" font-family="Times,serif" font-size="14.00">MaterialModule</text>
</g>
<!-- MaterialModule&#45;&gt;AppModule -->
<g id="edge3" class="edge">
<title>MaterialModule&#45;&gt;AppModule</title>
<path fill="none" stroke="black" d="M321.91,-122.01C321.91,-148.02 321.91,-193 321.91,-193 321.91,-193 269.66,-193 269.66,-193"/>
<polygon fill="black" stroke="black" points="269.67,-189.5 259.66,-193 269.66,-196.5 269.67,-189.5"/>
</g>
<!-- CartModule -->
<g id="node8" class="node">
<title>CartModule</title>
<polygon fill="#8dd3c7" stroke="black" points="2784.65,-266 2781.65,-270 2760.65,-270 2757.65,-266 2701.35,-266 2701.35,-230 2784.65,-230 2784.65,-266"/>
<text text-anchor="middle" x="2743" y="-243.8" font-family="Times,serif" font-size="14.00">CartModule</text>
</g>
<!-- MaterialModule&#45;&gt;CartModule -->
<g id="edge9" class="edge">
<title>MaterialModule&#45;&gt;CartModule</title>
<path fill="none" stroke="black" d="M343.3,-122.16C343.3,-153.41 343.3,-214 343.3,-214 343.3,-214 2729.06,-214 2729.06,-214 2729.06,-214 2729.06,-219.81 2729.06,-219.81"/>
<polygon fill="black" stroke="black" points="2725.56,-219.81 2729.06,-229.81 2732.56,-219.81 2725.56,-219.81"/>
</g>
<!-- DashboardModule -->
<g id="node10" class="node">
<title>DashboardModule</title>
<polygon fill="#8dd3c7" stroke="black" points="2661.19,-198 2658.19,-202 2637.19,-202 2634.19,-198 2540.81,-198 2540.81,-162 2661.19,-162 2661.19,-198"/>
<text text-anchor="middle" x="2601" y="-175.8" font-family="Times,serif" font-size="14.00">DashboardModule</text>
</g>
<!-- MaterialModule&#45;&gt;DashboardModule -->
<g id="edge23" class="edge">
<title>MaterialModule&#45;&gt;DashboardModule</title>
<path fill="none" stroke="black" d="M364.7,-122.1C364.7,-133.09 364.7,-145 364.7,-145 364.7,-145 2549.58,-145 2549.58,-145 2549.58,-145 2549.58,-151.68 2549.58,-151.68"/>
<polygon fill="black" stroke="black" points="2546.08,-151.68 2549.58,-161.68 2553.08,-151.68 2546.08,-151.68"/>
</g>
<!-- CloudOptionsModule -->
<g id="node14" class="node">
<title>CloudOptionsModule</title>
<polygon fill="#8dd3c7" stroke="black" points="2203.11,-266 2200.11,-270 2179.11,-270 2176.11,-266 2064.89,-266 2064.89,-230 2203.11,-230 2203.11,-266"/>
<text text-anchor="middle" x="2134" y="-243.8" font-family="Times,serif" font-size="14.00">CloudOptionsModule</text>
</g>
<!-- MaterialModule&#45;&gt;CloudOptionsModule -->
<g id="edge14" class="edge">
<title>MaterialModule&#45;&gt;CloudOptionsModule</title>
<path fill="none" stroke="black" d="M407.63,-110C652.23,-110 1650.13,-110 1650.13,-110 1650.13,-110 1650.13,-259 1650.13,-259 1650.13,-259 2054.93,-259 2054.93,-259"/>
<polygon fill="black" stroke="black" points="2054.93,-262.5 2064.93,-259 2054.93,-255.5 2054.93,-262.5"/>
</g>
<!-- SharedModule -->
<g id="node16" class="node">
<title>SharedModule</title>
<polygon fill="#8dd3c7" stroke="black" points="1768.42,-198 1765.42,-202 1744.42,-202 1741.42,-198 1669.58,-198 1669.58,-162 1768.42,-162 1768.42,-198"/>
<text text-anchor="middle" x="1719" y="-175.8" font-family="Times,serif" font-size="14.00">SharedModule</text>
</g>
<!-- MaterialModule&#45;&gt;SharedModule -->
<g id="edge39" class="edge">
<title>MaterialModule&#45;&gt;SharedModule</title>
<path fill="none" stroke="black" d="M407.7,-98C659.72,-98 1713.08,-98 1713.08,-98 1713.08,-98 1713.08,-151.8 1713.08,-151.8"/>
<polygon fill="black" stroke="black" points="1709.58,-151.8 1713.08,-161.8 1716.58,-151.8 1709.58,-151.8"/>
</g>
<!-- HomeModule -->
<g id="node32" class="node">
<title>HomeModule</title>
<polygon fill="#8dd3c7" stroke="black" points="3814.76,-198 3811.76,-202 3790.76,-202 3787.76,-198 3721.24,-198 3721.24,-162 3814.76,-162 3814.76,-198"/>
<text text-anchor="middle" x="3768" y="-175.8" font-family="Times,serif" font-size="14.00">HomeModule</text>
</g>
<!-- MaterialModule&#45;&gt;HomeModule -->
<g id="edge33" class="edge">
<title>MaterialModule&#45;&gt;HomeModule</title>
<path fill="none" stroke="black" d="M386.09,-122.12C386.09,-124.97 386.09,-127 386.09,-127 386.09,-127 3752.37,-127 3752.37,-127 3752.37,-127 3752.37,-151.76 3752.37,-151.76"/>
<polygon fill="black" stroke="black" points="3748.87,-151.76 3752.37,-161.76 3755.87,-151.76 3748.87,-151.76"/>
</g>
<!-- CartComponent -->
<g id="node6" class="node">
<title>CartComponent</title>
<polygon fill="#ffffb3" stroke="black" points="3090.94,-198 2985.06,-198 2985.06,-162 3090.94,-162 3090.94,-198"/>
<text text-anchor="middle" x="3038" y="-175.8" font-family="Times,serif" font-size="14.00">CartComponent</text>
</g>
<!-- CartComponent&#45;&gt;CartModule -->
<g id="edge5" class="edge">
<title>CartComponent&#45;&gt;CartModule</title>
<path fill="none" stroke="black" d="M3038,-198.29C3038,-220.21 3038,-254 3038,-254 3038,-254 2794.95,-254 2794.95,-254"/>
<polygon fill="black" stroke="black" points="2794.95,-250.5 2784.95,-254 2794.95,-257.5 2794.95,-250.5"/>
</g>
<!-- CartItemsComponent -->
<g id="node7" class="node">
<title>CartItemsComponent</title>
<polygon fill="#ffffb3" stroke="black" points="2967.04,-198 2830.96,-198 2830.96,-162 2967.04,-162 2967.04,-198"/>
<text text-anchor="middle" x="2899" y="-175.8" font-family="Times,serif" font-size="14.00">CartItemsComponent</text>
</g>
<!-- CartItemsComponent&#45;&gt;CartModule -->
<g id="edge6" class="edge">
<title>CartItemsComponent&#45;&gt;CartModule</title>
<path fill="none" stroke="black" d="M2899,-198.27C2899,-216.56 2899,-242 2899,-242 2899,-242 2794.81,-242 2794.81,-242"/>
<polygon fill="black" stroke="black" points="2794.81,-238.5 2784.81,-242 2794.81,-245.5 2794.81,-238.5"/>
</g>
<!-- CartRoutingModule -->
<g id="node9" class="node">
<title>CartRoutingModule</title>
<polygon fill="#8dd3c7" stroke="black" points="2807.27,-198 2804.27,-202 2783.27,-202 2780.27,-198 2678.73,-198 2678.73,-162 2807.27,-162 2807.27,-198"/>
<text text-anchor="middle" x="2743" y="-175.8" font-family="Times,serif" font-size="14.00">CartRoutingModule</text>
</g>
<!-- CartRoutingModule&#45;&gt;CartModule -->
<g id="edge7" class="edge">
<title>CartRoutingModule&#45;&gt;CartModule</title>
<path fill="none" stroke="black" d="M2756.94,-198.22C2756.94,-198.22 2756.94,-219.73 2756.94,-219.73"/>
<polygon fill="black" stroke="black" points="2753.44,-219.73 2756.94,-229.73 2760.44,-219.73 2753.44,-219.73"/>
</g>
<!-- DashboardModule&#45;&gt;CartModule -->
<g id="edge8" class="edge">
<title>DashboardModule&#45;&gt;CartModule</title>
<path fill="none" stroke="black" d="M2601,-198.29C2601,-220.21 2601,-254 2601,-254 2601,-254 2691.16,-254 2691.16,-254"/>
<polygon fill="black" stroke="black" points="2691.16,-257.5 2701.16,-254 2691.16,-250.5 2691.16,-257.5"/>
</g>
<!-- ApiErrorComponent  -->
<g id="node24" class="node">
<title>ApiErrorComponent </title>
<polygon fill="#fb8072" stroke="black" points="2034.86,-122 1899.14,-122 1899.14,-86 2034.86,-86 2034.86,-122"/>
<text text-anchor="middle" x="1967" y="-99.8" font-family="Times,serif" font-size="14.00">ApiErrorComponent </text>
</g>
<!-- DashboardModule&#45;&gt;ApiErrorComponent  -->
<g id="edge24" class="edge">
<title>DashboardModule&#45;&gt;ApiErrorComponent </title>
<path fill="none" stroke="black" stroke-dasharray="5,2" d="M2566.92,-161.85C2566.92,-149.73 2566.92,-136 2566.92,-136 2566.92,-136 2014.49,-136 2014.49,-136 2014.49,-136 2014.49,-132.24 2014.49,-132.24"/>
<polygon fill="black" stroke="black" points="2017.99,-132.24 2014.49,-122.24 2010.99,-132.24 2017.99,-132.24"/>
</g>
<!-- HeaderComponent  -->
<g id="node25" class="node">
<title>HeaderComponent </title>
<polygon fill="#fb8072" stroke="black" points="1881.74,-122 1756.26,-122 1756.26,-86 1881.74,-86 1881.74,-122"/>
<text text-anchor="middle" x="1819" y="-99.8" font-family="Times,serif" font-size="14.00">HeaderComponent </text>
</g>
<!-- DashboardModule&#45;&gt;HeaderComponent  -->
<g id="edge25" class="edge">
<title>DashboardModule&#45;&gt;HeaderComponent </title>
<path fill="none" stroke="black" stroke-dasharray="5,2" d="M2558.25,-161.87C2558.25,-151.29 2558.25,-140 2558.25,-140 2558.25,-140 1834,-140 1834,-140 1834,-140 1834,-132.42 1834,-132.42"/>
<polygon fill="black" stroke="black" points="1837.5,-132.42 1834,-122.42 1830.5,-132.42 1837.5,-132.42"/>
</g>
<!-- CarsDataComponent -->
<g id="node11" class="node">
<title>CarsDataComponent</title>
<polygon fill="#ffffb3" stroke="black" points="2127.92,-198 1994.08,-198 1994.08,-162 2127.92,-162 2127.92,-198"/>
<text text-anchor="middle" x="2061" y="-175.8" font-family="Times,serif" font-size="14.00">CarsDataComponent</text>
</g>
<!-- CarsDataComponent&#45;&gt;CloudOptionsModule -->
<g id="edge10" class="edge">
<title>CarsDataComponent&#45;&gt;CloudOptionsModule</title>
<path fill="none" stroke="black" d="M2096.33,-198.22C2096.33,-198.22 2096.33,-219.73 2096.33,-219.73"/>
<polygon fill="black" stroke="black" points="2092.83,-219.73 2096.33,-229.73 2099.83,-219.73 2092.83,-219.73"/>
</g>
<!-- CloudOptionsComponent -->
<g id="node12" class="node">
<title>CloudOptionsComponent</title>
<polygon fill="#ffffb3" stroke="black" points="2446.89,-198 2287.11,-198 2287.11,-162 2446.89,-162 2446.89,-198"/>
<text text-anchor="middle" x="2367" y="-175.8" font-family="Times,serif" font-size="14.00">CloudOptionsComponent</text>
</g>
<!-- CloudOptionsComponent&#45;&gt;CloudOptionsModule -->
<g id="edge11" class="edge">
<title>CloudOptionsComponent&#45;&gt;CloudOptionsModule</title>
<path fill="none" stroke="black" d="M2367,-198.27C2367,-216.56 2367,-242 2367,-242 2367,-242 2213.28,-242 2213.28,-242"/>
<polygon fill="black" stroke="black" points="2213.28,-238.5 2203.28,-242 2213.28,-245.5 2213.28,-238.5"/>
</g>
<!-- TabBarComponent -->
<g id="node13" class="node">
<title>TabBarComponent</title>
<polygon fill="#ffffb3" stroke="black" points="2268.81,-198 2145.19,-198 2145.19,-162 2268.81,-162 2268.81,-198"/>
<text text-anchor="middle" x="2207" y="-175.8" font-family="Times,serif" font-size="14.00">TabBarComponent</text>
</g>
<!-- TabBarComponent&#45;&gt;CloudOptionsModule -->
<g id="edge12" class="edge">
<title>TabBarComponent&#45;&gt;CloudOptionsModule</title>
<path fill="none" stroke="black" d="M2174.2,-198.22C2174.2,-198.22 2174.2,-219.73 2174.2,-219.73"/>
<polygon fill="black" stroke="black" points="2170.7,-219.73 2174.2,-229.73 2177.7,-219.73 2170.7,-219.73"/>
</g>
<!-- CloudOptionsRoutingModule -->
<g id="node15" class="node">
<title>CloudOptionsRoutingModule</title>
<polygon fill="#8dd3c7" stroke="black" points="1969.73,-198 1966.73,-202 1945.73,-202 1942.73,-198 1786.27,-198 1786.27,-162 1969.73,-162 1969.73,-198"/>
<text text-anchor="middle" x="1878" y="-175.8" font-family="Times,serif" font-size="14.00">CloudOptionsRoutingModule</text>
</g>
<!-- CloudOptionsRoutingModule&#45;&gt;CloudOptionsModule -->
<g id="edge13" class="edge">
<title>CloudOptionsRoutingModule&#45;&gt;CloudOptionsModule</title>
<path fill="none" stroke="black" d="M1878,-198.03C1878,-215.06 1878,-238 1878,-238 1878,-238 2054.72,-238 2054.72,-238"/>
<polygon fill="black" stroke="black" points="2054.72,-241.5 2064.72,-238 2054.72,-234.5 2054.72,-241.5"/>
</g>
<!-- SharedModule&#45;&gt;CloudOptionsModule -->
<g id="edge15" class="edge">
<title>SharedModule&#45;&gt;CloudOptionsModule</title>
<path fill="none" stroke="black" d="M1735.4,-198.11C1735.4,-217.34 1735.4,-245 1735.4,-245 1735.4,-245 2054.57,-245 2054.57,-245"/>
<polygon fill="black" stroke="black" points="2054.57,-248.5 2064.57,-245 2054.57,-241.5 2054.57,-248.5"/>
</g>
<!-- ActionColumnComponent  -->
<g id="node39" class="node">
<title>ActionColumnComponent </title>
<polygon fill="#fb8072" stroke="black" points="615.05,-266 446.95,-266 446.95,-230 615.05,-230 615.05,-266"/>
<text text-anchor="middle" x="531" y="-243.8" font-family="Times,serif" font-size="14.00">ActionColumnComponent </text>
</g>
<!-- SharedModule&#45;&gt;ActionColumnComponent  -->
<g id="edge40" class="edge">
<title>SharedModule&#45;&gt;ActionColumnComponent </title>
<path fill="none" stroke="black" stroke-dasharray="5,2" d="M1669.47,-168C1444.63,-168 531,-168 531,-168 531,-168 531,-219.85 531,-219.85"/>
<polygon fill="black" stroke="black" points="527.5,-219.85 531,-229.85 534.5,-219.85 527.5,-219.85"/>
</g>
<!-- TableHeadersDropdownComponent  -->
<g id="node40" class="node">
<title>TableHeadersDropdownComponent </title>
<polygon fill="#fb8072" stroke="black" points="1032.43,-266 809.57,-266 809.57,-230 1032.43,-230 1032.43,-266"/>
<text text-anchor="middle" x="921" y="-243.8" font-family="Times,serif" font-size="14.00">TableHeadersDropdownComponent </text>
</g>
<!-- SharedModule&#45;&gt;TableHeadersDropdownComponent  -->
<g id="edge41" class="edge">
<title>SharedModule&#45;&gt;TableHeadersDropdownComponent </title>
<path fill="none" stroke="black" stroke-dasharray="5,2" d="M1669.68,-178C1495.7,-178 921,-178 921,-178 921,-178 921,-219.97 921,-219.97"/>
<polygon fill="black" stroke="black" points="917.5,-219.97 921,-229.97 924.5,-219.97 917.5,-219.97"/>
</g>
<!-- TabularViewComponent  -->
<g id="node41" class="node">
<title>TabularViewComponent </title>
<polygon fill="#fb8072" stroke="black" points="791.18,-266 632.82,-266 632.82,-230 791.18,-230 791.18,-266"/>
<text text-anchor="middle" x="712" y="-243.8" font-family="Times,serif" font-size="14.00">TabularViewComponent </text>
</g>
<!-- SharedModule&#45;&gt;TabularViewComponent  -->
<g id="edge42" class="edge">
<title>SharedModule&#45;&gt;TabularViewComponent </title>
<path fill="none" stroke="black" stroke-dasharray="5,2" d="M1669.75,-173C1467.57,-173 712,-173 712,-173 712,-173 712,-219.84 712,-219.84"/>
<polygon fill="black" stroke="black" points="708.5,-219.84 712,-229.84 715.5,-219.84 708.5,-219.84"/>
</g>
<!-- ApiErrorComponent -->
<g id="node17" class="node">
<title>ApiErrorComponent</title>
<polygon fill="#ffffb3" stroke="black" points="2592.86,-122 2461.14,-122 2461.14,-86 2592.86,-86 2592.86,-122"/>
<text text-anchor="middle" x="2527" y="-99.8" font-family="Times,serif" font-size="14.00">ApiErrorComponent</text>
</g>
<!-- ApiErrorComponent&#45;&gt;DashboardModule -->
<g id="edge16" class="edge">
<title>ApiErrorComponent&#45;&gt;DashboardModule</title>
<path fill="none" stroke="black" d="M2584.26,-122.01C2584.26,-122.01 2584.26,-151.85 2584.26,-151.85"/>
<polygon fill="black" stroke="black" points="2580.76,-151.85 2584.26,-161.85 2587.76,-151.85 2580.76,-151.85"/>
</g>
<!-- ConfirmationDialogComponent -->
<g id="node18" class="node">
<title>ConfirmationDialogComponent</title>
<polygon fill="#ffffb3" stroke="black" points="2443.37,-122 2248.63,-122 2248.63,-86 2443.37,-86 2443.37,-122"/>
<text text-anchor="middle" x="2346" y="-99.8" font-family="Times,serif" font-size="14.00">ConfirmationDialogComponent</text>
</g>
<!-- ConfirmationDialogComponent&#45;&gt;DashboardModule -->
<g id="edge17" class="edge">
<title>ConfirmationDialogComponent&#45;&gt;DashboardModule</title>
<path fill="none" stroke="black" d="M2443.65,-104C2450.05,-104 2454.01,-104 2454.01,-104 2454.01,-104 2454.01,-180 2454.01,-180 2454.01,-180 2530.79,-180 2530.79,-180"/>
<polygon fill="black" stroke="black" points="2530.79,-183.5 2540.79,-180 2530.79,-176.5 2530.79,-183.5"/>
</g>
<!-- DashboardComponent -->
<g id="node19" class="node">
<title>DashboardComponent</title>
<polygon fill="#ffffb3" stroke="black" points="3202.97,-122 3061.03,-122 3061.03,-86 3202.97,-86 3202.97,-122"/>
<text text-anchor="middle" x="3132" y="-99.8" font-family="Times,serif" font-size="14.00">DashboardComponent</text>
</g>
<!-- DashboardComponent&#45;&gt;DashboardModule -->
<g id="edge18" class="edge">
<title>DashboardComponent&#45;&gt;DashboardModule</title>
<path fill="none" stroke="black" d="M3075.87,-122.28C3075.87,-137.95 3075.87,-158 3075.87,-158 3075.87,-158 2651.03,-158 2651.03,-158 2651.03,-158 2651.03,-158.38 2651.03,-158.38"/>
<polygon fill="black" stroke="black" points="2647.53,-151.83 2651.03,-161.83 2654.53,-151.83 2647.53,-151.83"/>
</g>
<!-- HeaderComponent -->
<g id="node20" class="node">
<title>HeaderComponent</title>
<polygon fill="#ffffb3" stroke="black" points="3042.74,-122 2921.26,-122 2921.26,-86 3042.74,-86 3042.74,-122"/>
<text text-anchor="middle" x="2982" y="-99.8" font-family="Times,serif" font-size="14.00">HeaderComponent</text>
</g>
<!-- HeaderComponent&#45;&gt;DashboardModule -->
<g id="edge19" class="edge">
<title>HeaderComponent&#45;&gt;DashboardModule</title>
<path fill="none" stroke="black" d="M2944.2,-122.05C2944.2,-136.37 2944.2,-154 2944.2,-154 2944.2,-154 2640.97,-154 2640.97,-154 2640.97,-154 2640.97,-154.79 2640.97,-154.79"/>
<polygon fill="black" stroke="black" points="2637.47,-151.94 2640.97,-161.94 2644.47,-151.94 2637.47,-151.94"/>
</g>
<!-- ServerErrorComponent -->
<g id="node21" class="node">
<title>ServerErrorComponent</title>
<polygon fill="#ffffb3" stroke="black" points="2902.9,-122 2755.1,-122 2755.1,-86 2902.9,-86 2902.9,-122"/>
<text text-anchor="middle" x="2829" y="-99.8" font-family="Times,serif" font-size="14.00">ServerErrorComponent</text>
</g>
<!-- ServerErrorComponent&#45;&gt;DashboardModule -->
<g id="edge20" class="edge">
<title>ServerErrorComponent&#45;&gt;DashboardModule</title>
<path fill="none" stroke="black" d="M2781.34,-122.04C2781.34,-134.56 2781.34,-149 2781.34,-149 2781.34,-149 2630.91,-149 2630.91,-149 2630.91,-149 2630.91,-151.97 2630.91,-151.97"/>
<polygon fill="black" stroke="black" points="2627.41,-151.97 2630.91,-161.97 2634.41,-151.97 2627.41,-151.97"/>
</g>
<!-- SidenavComponent -->
<g id="node22" class="node">
<title>SidenavComponent</title>
<polygon fill="#ffffb3" stroke="black" points="2737.44,-122 2610.56,-122 2610.56,-86 2737.44,-86 2737.44,-122"/>
<text text-anchor="middle" x="2674" y="-99.8" font-family="Times,serif" font-size="14.00">SidenavComponent</text>
</g>
<!-- SidenavComponent&#45;&gt;DashboardModule -->
<g id="edge21" class="edge">
<title>SidenavComponent&#45;&gt;DashboardModule</title>
<path fill="none" stroke="black" d="M2620.85,-122.01C2620.85,-122.01 2620.85,-151.85 2620.85,-151.85"/>
<polygon fill="black" stroke="black" points="2617.35,-151.85 2620.85,-161.85 2624.35,-151.85 2617.35,-151.85"/>
</g>
<!-- DashboardRoutingModule -->
<g id="node23" class="node">
<title>DashboardRoutingModule</title>
<polygon fill="#8dd3c7" stroke="black" points="2224.81,-122 2221.81,-126 2200.81,-126 2197.81,-122 2059.19,-122 2059.19,-86 2224.81,-86 2224.81,-122"/>
<text text-anchor="middle" x="2142" y="-99.8" font-family="Times,serif" font-size="14.00">DashboardRoutingModule</text>
</g>
<!-- DashboardRoutingModule&#45;&gt;DashboardModule -->
<g id="edge22" class="edge">
<title>DashboardRoutingModule&#45;&gt;DashboardModule</title>
<path fill="none" stroke="black" d="M2185,-122.16C2185,-127.04 2185,-131 2185,-131 2185,-131 2575.59,-131 2575.59,-131 2575.59,-131 2575.59,-151.75 2575.59,-151.75"/>
<polygon fill="black" stroke="black" points="2572.09,-151.75 2575.59,-161.75 2579.09,-151.75 2572.09,-151.75"/>
</g>
<!-- CarBrandsComponent -->
<g id="node26" class="node">
<title>CarBrandsComponent</title>
<polygon fill="#ffffb3" stroke="black" points="3838.7,-122 3697.3,-122 3697.3,-86 3838.7,-86 3838.7,-122"/>
<text text-anchor="middle" x="3768" y="-99.8" font-family="Times,serif" font-size="14.00">CarBrandsComponent</text>
</g>
<!-- CarBrandsComponent&#45;&gt;HomeModule -->
<g id="edge26" class="edge">
<title>CarBrandsComponent&#45;&gt;HomeModule</title>
<path fill="none" stroke="black" d="M3783.63,-122.01C3783.63,-122.01 3783.63,-151.85 3783.63,-151.85"/>
<polygon fill="black" stroke="black" points="3780.13,-151.85 3783.63,-161.85 3787.13,-151.85 3780.13,-151.85"/>
</g>
<!-- CarsListComponent -->
<g id="node27" class="node">
<title>CarsListComponent</title>
<polygon fill="#ffffb3" stroke="black" points="3679.27,-122 3550.73,-122 3550.73,-86 3679.27,-86 3679.27,-122"/>
<text text-anchor="middle" x="3615" y="-99.8" font-family="Times,serif" font-size="14.00">CarsListComponent</text>
</g>
<!-- CarsListComponent&#45;&gt;HomeModule -->
<g id="edge27" class="edge">
<title>CarsListComponent&#45;&gt;HomeModule</title>
<path fill="none" stroke="black" d="M3615,-122.31C3615,-142.15 3615,-171 3615,-171 3615,-171 3710.85,-171 3710.85,-171"/>
<polygon fill="black" stroke="black" points="3710.85,-174.5 3720.85,-171 3710.85,-167.5 3710.85,-174.5"/>
</g>
<!-- CarsdataCardComponent -->
<g id="node28" class="node">
<title>CarsdataCardComponent</title>
<polygon fill="#ffffb3" stroke="black" points="4512.52,-122 4355.48,-122 4355.48,-86 4512.52,-86 4512.52,-122"/>
<text text-anchor="middle" x="4434" y="-99.8" font-family="Times,serif" font-size="14.00">CarsdataCardComponent</text>
</g>
<!-- CarsdataCardComponent&#45;&gt;HomeModule -->
<g id="edge28" class="edge">
<title>CarsdataCardComponent&#45;&gt;HomeModule</title>
<path fill="none" stroke="black" d="M4434,-122.03C4434,-147.51 4434,-191 4434,-191 4434,-191 3824.83,-191 3824.83,-191"/>
<polygon fill="black" stroke="black" points="3824.83,-187.5 3814.83,-191 3824.83,-194.5 3824.83,-187.5"/>
</g>
<!-- DataNotFoundComponent -->
<g id="node29" class="node">
<title>DataNotFoundComponent</title>
<polygon fill="#ffffb3" stroke="black" points="4337.04,-122 4172.96,-122 4172.96,-86 4337.04,-86 4337.04,-122"/>
<text text-anchor="middle" x="4255" y="-99.8" font-family="Times,serif" font-size="14.00">DataNotFoundComponent</text>
</g>
<!-- DataNotFoundComponent&#45;&gt;HomeModule -->
<g id="edge29" class="edge">
<title>DataNotFoundComponent&#45;&gt;HomeModule</title>
<path fill="none" stroke="black" d="M4255,-122.15C4255,-145.76 4255,-184 4255,-184 4255,-184 3825.14,-184 3825.14,-184"/>
<polygon fill="black" stroke="black" points="3825.14,-180.5 3815.14,-184 3825.14,-187.5 3825.14,-180.5"/>
</g>
<!-- HomeComponent -->
<g id="node30" class="node">
<title>HomeComponent</title>
<polygon fill="#ffffb3" stroke="black" points="4154.55,-122 4039.45,-122 4039.45,-86 4154.55,-86 4154.55,-122"/>
<text text-anchor="middle" x="4097" y="-99.8" font-family="Times,serif" font-size="14.00">HomeComponent</text>
</g>
<!-- HomeComponent&#45;&gt;HomeModule -->
<g id="edge30" class="edge">
<title>HomeComponent&#45;&gt;HomeModule</title>
<path fill="none" stroke="black" d="M4097,-122.04C4097,-143.66 4097,-177 4097,-177 4097,-177 3824.79,-177 3824.79,-177"/>
<polygon fill="black" stroke="black" points="3824.79,-173.5 3814.79,-177 3824.79,-180.5 3824.79,-173.5"/>
</g>
<!-- PageNotFoundComponent -->
<g id="node31" class="node">
<title>PageNotFoundComponent</title>
<polygon fill="#ffffb3" stroke="black" points="4021.82,-122 3856.18,-122 3856.18,-86 4021.82,-86 4021.82,-122"/>
<text text-anchor="middle" x="3939" y="-99.8" font-family="Times,serif" font-size="14.00">PageNotFoundComponent</text>
</g>
<!-- PageNotFoundComponent&#45;&gt;HomeModule -->
<g id="edge31" class="edge">
<title>PageNotFoundComponent&#45;&gt;HomeModule</title>
<path fill="none" stroke="black" d="M3939,-122.03C3939,-141.58 3939,-170 3939,-170 3939,-170 3825.18,-170 3825.18,-170"/>
<polygon fill="black" stroke="black" points="3825.18,-166.5 3815.18,-170 3825.18,-173.5 3825.18,-166.5"/>
</g>
<!-- HomeComponent  -->
<g id="node35" class="node">
<title>HomeComponent </title>
<polygon fill="#fb8072" stroke="black" points="3827.54,-266 3708.46,-266 3708.46,-230 3827.54,-230 3827.54,-266"/>
<text text-anchor="middle" x="3768" y="-243.8" font-family="Times,serif" font-size="14.00">HomeComponent </text>
</g>
<!-- HomeModule&#45;&gt;HomeComponent  -->
<g id="edge35" class="edge">
<title>HomeModule&#45;&gt;HomeComponent </title>
<path fill="none" stroke="black" stroke-dasharray="5,2" d="M3768,-198.22C3768,-198.22 3768,-219.73 3768,-219.73"/>
<polygon fill="black" stroke="black" points="3764.5,-219.73 3768,-229.73 3771.5,-219.73 3764.5,-219.73"/>
</g>
<!-- HomeRoutingModule -->
<g id="node33" class="node">
<title>HomeRoutingModule</title>
<polygon fill="#8dd3c7" stroke="black" points="3527.38,-122 3524.38,-126 3503.38,-126 3500.38,-122 3388.62,-122 3388.62,-86 3527.38,-86 3527.38,-122"/>
<text text-anchor="middle" x="3458" y="-99.8" font-family="Times,serif" font-size="14.00">HomeRoutingModule</text>
</g>
<!-- HomeRoutingModule&#45;&gt;HomeModule -->
<g id="edge32" class="edge">
<title>HomeRoutingModule&#45;&gt;HomeModule</title>
<path fill="none" stroke="black" d="M3458,-122.01C3458,-144.49 3458,-180 3458,-180 3458,-180 3710.92,-180 3710.92,-180"/>
<polygon fill="black" stroke="black" points="3710.92,-183.5 3720.92,-180 3710.92,-176.5 3710.92,-183.5"/>
</g>
<!-- NgOptimizedImage -->
<g id="node34" class="node">
<title>NgOptimizedImage</title>
<polygon fill="#8dd3c7" stroke="black" points="3370.69,-122 3367.69,-126 3346.69,-126 3343.69,-122 3243.31,-122 3243.31,-86 3370.69,-86 3370.69,-122"/>
<text text-anchor="middle" x="3307" y="-99.8" font-family="Times,serif" font-size="14.00">NgOptimizedImage</text>
</g>
<!-- NgOptimizedImage&#45;&gt;HomeModule -->
<g id="edge34" class="edge">
<title>NgOptimizedImage&#45;&gt;HomeModule</title>
<path fill="none" stroke="black" d="M3307,-122.03C3307,-146.98 3307,-189 3307,-189 3307,-189 3710.83,-189 3710.83,-189"/>
<polygon fill="black" stroke="black" points="3710.83,-192.5 3720.83,-189 3710.83,-185.5 3710.83,-192.5"/>
</g>
<!-- ActionColumnComponent -->
<g id="node36" class="node">
<title>ActionColumnComponent</title>
<polygon fill="#ffffb3" stroke="black" points="1220.05,-266 1055.95,-266 1055.95,-230 1220.05,-230 1220.05,-266"/>
<text text-anchor="middle" x="1138" y="-243.8" font-family="Times,serif" font-size="14.00">ActionColumnComponent</text>
</g>
<!-- ActionColumnComponent&#45;&gt;SharedModule -->
<g id="edge36" class="edge">
<title>ActionColumnComponent&#45;&gt;SharedModule</title>
<path fill="none" stroke="black" d="M1138,-229.89C1138,-210.66 1138,-183 1138,-183 1138,-183 1659.46,-183 1659.46,-183"/>
<polygon fill="black" stroke="black" points="1659.46,-186.5 1669.46,-183 1659.46,-179.5 1659.46,-186.5"/>
</g>
<!-- TableHeadersDropdownComponent -->
<g id="node37" class="node">
<title>TableHeadersDropdownComponent</title>
<polygon fill="#ffffb3" stroke="black" points="1630.43,-266 1411.57,-266 1411.57,-230 1630.43,-230 1630.43,-266"/>
<text text-anchor="middle" x="1521" y="-243.8" font-family="Times,serif" font-size="14.00">TableHeadersDropdownComponent</text>
</g>
<!-- TableHeadersDropdownComponent&#45;&gt;SharedModule -->
<g id="edge37" class="edge">
<title>TableHeadersDropdownComponent&#45;&gt;SharedModule</title>
<path fill="none" stroke="black" d="M1630.56,-252C1668.92,-252 1702.6,-252 1702.6,-252 1702.6,-252 1702.6,-208.17 1702.6,-208.17"/>
<polygon fill="black" stroke="black" points="1706.1,-208.17 1702.6,-198.17 1699.1,-208.17 1706.1,-208.17"/>
</g>
<!-- TabularViewComponent -->
<g id="node38" class="node">
<title>TabularViewComponent</title>
<polygon fill="#ffffb3" stroke="black" points="1393.68,-266 1238.32,-266 1238.32,-230 1393.68,-230 1393.68,-266"/>
<text text-anchor="middle" x="1316" y="-243.8" font-family="Times,serif" font-size="14.00">TabularViewComponent</text>
</g>
<!-- TabularViewComponent&#45;&gt;SharedModule -->
<g id="edge38" class="edge">
<title>TabularViewComponent&#45;&gt;SharedModule</title>
<path fill="none" stroke="black" d="M1316,-230C1316,-212.32 1316,-188 1316,-188 1316,-188 1659.58,-188 1659.58,-188"/>
<polygon fill="black" stroke="black" points="1659.58,-191.5 1669.58,-188 1659.58,-184.5 1659.58,-191.5"/>
</g>
</g>
</svg>
