<?xml version="1.0" encoding="UTF-8" standalone="no"?>
<!DOCTYPE svg PUBLIC "-//W3C//DTD SVG 1.1//EN"
 "http://www.w3.org/Graphics/SVG/1.1/DTD/svg11.dtd">
<!-- Generated by graphviz version 2.47.0 (20210316.0004)
 -->
<!-- Title: dependencies Pages: 1 -->
<svg width="761pt" height="284pt"
 viewBox="0.00 0.00 761.00 284.00" xmlns="http://www.w3.org/2000/svg" xmlns:xlink="http://www.w3.org/1999/xlink">
<g id="graph0" class="graph" transform="scale(1 1) rotate(0) translate(4 280)">
<title>dependencies</title>
<polygon fill="white" stroke="transparent" points="-4,4 -4,-280 757,-280 757,4 -4,4"/>
<text text-anchor="start" x="355.51" y="-42.4" font-family="Times-12" font-weight="bold" font-size="14.00">Legend</text>
<polygon fill="#ffffb3" stroke="transparent" points="142.5,-10 142.5,-30 162.5,-30 162.5,-10 142.5,-10"/>
<text text-anchor="start" x="166.13" y="-15.4" font-family="Times-12" font-size="14.00"> &#160;Declarations</text>
<polygon fill="#8dd3c7" stroke="transparent" points="255.5,-10 255.5,-30 275.5,-30 275.5,-10 255.5,-10"/>
<text text-anchor="start" x="279.23" y="-15.4" font-family="Times-12" font-size="14.00"> &#160;Module</text>
<polygon fill="#80b1d3" stroke="transparent" points="341.5,-10 341.5,-30 361.5,-30 361.5,-10 341.5,-10"/>
<text text-anchor="start" x="365.28" y="-15.4" font-family="Times-12" font-size="14.00"> &#160;Bootstrap</text>
<polygon fill="#fdb462" stroke="transparent" points="438.5,-10 438.5,-30 458.5,-30 458.5,-10 438.5,-10"/>
<text text-anchor="start" x="462.17" y="-15.4" font-family="Times-12" font-size="14.00"> &#160;Providers</text>
<polygon fill="#fb8072" stroke="transparent" points="534.5,-10 534.5,-30 554.5,-30 554.5,-10 534.5,-10"/>
<text text-anchor="start" x="558.23" y="-15.4" font-family="Times-12" font-size="14.00"> &#160;Exports</text>
<g id="clust1" class="cluster">
<title>cluster_SharedModule</title>
<polygon fill="none" stroke="black" stroke-dasharray="1,5" points="8,-70 8,-268 745,-268 745,-70 8,-70"/>
</g>
<g id="clust7" class="cluster">
<title>cluster_SharedModule_exports</title>
<polygon fill="none" stroke="black" points="76,-208 76,-260 677,-260 677,-208 76,-208"/>
</g>
<g id="clust6" class="cluster">
<title>cluster_SharedModule_imports</title>
<polygon fill="none" stroke="black" points="615,-78 615,-130 737,-130 737,-78 615,-78"/>
</g>
<g id="clust2" class="cluster">
<title>cluster_SharedModule_declarations</title>
<polygon fill="none" stroke="black" points="16,-78 16,-130 607,-130 607,-78 16,-78"/>
</g>
<!-- ActionColumnComponent -->
<g id="node1" class="node">
<title>ActionColumnComponent</title>
<polygon fill="#ffffb3" stroke="black" points="599.05,-122 434.95,-122 434.95,-86 599.05,-86 599.05,-122"/>
<text text-anchor="middle" x="517" y="-99.8" font-family="Times,serif" font-size="14.00">ActionColumnComponent</text>
</g>
<!-- SharedModule -->
<g id="node4" class="node">
<title>SharedModule</title>
<polygon fill="#8dd3c7" stroke="black" points="421.42,-187 418.42,-191 397.42,-191 394.42,-187 322.58,-187 322.58,-151 421.42,-151 421.42,-187"/>
<text text-anchor="middle" x="372" y="-164.8" font-family="Times,serif" font-size="14.00">SharedModule</text>
</g>
<!-- ActionColumnComponent&#45;&gt;SharedModule -->
<g id="edge1" class="edge">
<title>ActionColumnComponent&#45;&gt;SharedModule</title>
<path fill="none" stroke="black" d="M458.97,-122.03C458.97,-138.4 458.97,-160 458.97,-160 458.97,-160 431.33,-160 431.33,-160"/>
<polygon fill="black" stroke="black" points="431.33,-156.5 421.33,-160 431.33,-163.5 431.33,-156.5"/>
</g>
<!-- TableHeadersDropdownComponent -->
<g id="node2" class="node">
<title>TableHeadersDropdownComponent</title>
<polygon fill="#ffffb3" stroke="black" points="416.43,-122 197.57,-122 197.57,-86 416.43,-86 416.43,-122"/>
<text text-anchor="middle" x="307" y="-99.8" font-family="Times,serif" font-size="14.00">TableHeadersDropdownComponent</text>
</g>
<!-- TableHeadersDropdownComponent&#45;&gt;SharedModule -->
<g id="edge2" class="edge">
<title>TableHeadersDropdownComponent&#45;&gt;SharedModule</title>
<path fill="none" stroke="black" d="M369.63,-122.11C369.63,-122.11 369.63,-140.99 369.63,-140.99"/>
<polygon fill="black" stroke="black" points="366.13,-140.99 369.63,-150.99 373.13,-140.99 366.13,-140.99"/>
</g>
<!-- TabularViewComponent -->
<g id="node3" class="node">
<title>TabularViewComponent</title>
<polygon fill="#ffffb3" stroke="black" points="179.68,-122 24.32,-122 24.32,-86 179.68,-86 179.68,-122"/>
<text text-anchor="middle" x="102" y="-99.8" font-family="Times,serif" font-size="14.00">TabularViewComponent</text>
</g>
<!-- TabularViewComponent&#45;&gt;SharedModule -->
<g id="edge3" class="edge">
<title>TabularViewComponent&#45;&gt;SharedModule</title>
<path fill="none" stroke="black" d="M131.62,-122.02C131.62,-139.37 131.62,-163 131.62,-163 131.62,-163 312.78,-163 312.78,-163"/>
<polygon fill="black" stroke="black" points="312.78,-166.5 322.78,-163 312.78,-159.5 312.78,-166.5"/>
</g>
<!-- ActionColumnComponent  -->
<g id="node6" class="node">
<title>ActionColumnComponent </title>
<polygon fill="#fb8072" stroke="black" points="669.05,-252 500.95,-252 500.95,-216 669.05,-216 669.05,-252"/>
<text text-anchor="middle" x="585" y="-229.8" font-family="Times,serif" font-size="14.00">ActionColumnComponent </text>
</g>
<!-- SharedModule&#45;&gt;ActionColumnComponent  -->
<g id="edge5" class="edge">
<title>SharedModule&#45;&gt;ActionColumnComponent </title>
<path fill="none" stroke="black" stroke-dasharray="5,2" d="M421.62,-178C474.32,-178 550.12,-178 550.12,-178 550.12,-178 550.12,-205.97 550.12,-205.97"/>
<polygon fill="black" stroke="black" points="546.63,-205.97 550.12,-215.97 553.63,-205.97 546.63,-205.97"/>
</g>
<!-- TableHeadersDropdownComponent  -->
<g id="node7" class="node">
<title>TableHeadersDropdownComponent </title>
<polygon fill="#fb8072" stroke="black" points="483.43,-252 260.57,-252 260.57,-216 483.43,-216 483.43,-252"/>
<text text-anchor="middle" x="372" y="-229.8" font-family="Times,serif" font-size="14.00">TableHeadersDropdownComponent </text>
</g>
<!-- SharedModule&#45;&gt;TableHeadersDropdownComponent  -->
<g id="edge6" class="edge">
<title>SharedModule&#45;&gt;TableHeadersDropdownComponent </title>
<path fill="none" stroke="black" stroke-dasharray="5,2" d="M372,-187.11C372,-187.11 372,-205.99 372,-205.99"/>
<polygon fill="black" stroke="black" points="368.5,-205.99 372,-215.99 375.5,-205.99 368.5,-205.99"/>
</g>
<!-- TabularViewComponent  -->
<g id="node8" class="node">
<title>TabularViewComponent </title>
<polygon fill="#fb8072" stroke="black" points="242.18,-252 83.82,-252 83.82,-216 242.18,-216 242.18,-252"/>
<text text-anchor="middle" x="163" y="-229.8" font-family="Times,serif" font-size="14.00">TabularViewComponent </text>
</g>
<!-- SharedModule&#45;&gt;TabularViewComponent  -->
<g id="edge7" class="edge">
<title>SharedModule&#45;&gt;TabularViewComponent </title>
<path fill="none" stroke="black" stroke-dasharray="5,2" d="M322.63,-175C278.23,-175 219.94,-175 219.94,-175 219.94,-175 219.94,-205.98 219.94,-205.98"/>
<polygon fill="black" stroke="black" points="216.44,-205.98 219.94,-215.98 223.44,-205.98 216.44,-205.98"/>
</g>
<!-- MaterialModule -->
<g id="node5" class="node">
<title>MaterialModule</title>
<polygon fill="#8dd3c7" stroke="black" points="729.47,-122 726.47,-126 705.47,-126 702.47,-122 622.53,-122 622.53,-86 729.47,-86 729.47,-122"/>
<text text-anchor="middle" x="676" y="-99.8" font-family="Times,serif" font-size="14.00">MaterialModule</text>
</g>
<!-- MaterialModule&#45;&gt;SharedModule -->
<g id="edge4" class="edge">
<title>MaterialModule&#45;&gt;SharedModule</title>
<path fill="none" stroke="black" d="M645.77,-122.11C645.77,-141.34 645.77,-169 645.77,-169 645.77,-169 431.26,-169 431.26,-169"/>
<polygon fill="black" stroke="black" points="431.26,-165.5 421.26,-169 431.26,-172.5 431.26,-165.5"/>
</g>
</g>
</svg>
