<svg width="789" height="213" viewBox="0 0 789 213" fill="none" xmlns="http://www.w3.org/2000/svg">
<rect x="552" y="5" width="198" height="139" rx="8" fill="#F1F7FB" stroke="#5C91B5" stroke-opacity="0.15" stroke-width="10"/>
<path d="M649 144L649 183" stroke="#5C91B5" stroke-opacity="0.15" stroke-width="10"/>
<path d="M699.334 187.445H602.243" stroke="#5C91B5" stroke-opacity="0.15" stroke-width="10" stroke-linecap="round"/>
<path d="M10 203L344 203" stroke="#5C91B5" stroke-opacity="0.15" stroke-width="20" stroke-linecap="round"/>
<path d="M761 203L779 203" stroke="#5C91B5" stroke-opacity="0.15" stroke-width="20" stroke-linecap="round"/>
<path d="M654 203L727 203" stroke="#5C91B5" stroke-opacity="0.15" stroke-width="20" stroke-linecap="round"/>
<path d="M396 203L615 203" stroke="#5C91B5" stroke-opacity="0.15" stroke-width="20" stroke-linecap="round"/>
<circle cx="212.23" cy="55.2302" r="6.23017" fill="#E3EAF1"/>
<circle cx="333.43" cy="160.521" r="6.23017" fill="#E3EAF1"/>
<circle cx="525.23" cy="52.2302" r="6.23017" fill="#E3EAF1"/>
<path d="M414.467 65.8665L370.886 143.809" stroke="#E02020" stroke-width="10"/>
<circle cx="391" cy="104" r="44" stroke="#E02020" stroke-width="10"/>
<g opacity="0.3">
<path fill-rule="evenodd" clip-rule="evenodd" d="M221.333 118.01C220.616 118.004 220.005 117.267 220.01 116.667L220.403 62.015C220.408 61.317 221.048 60.6866 221.746 60.6916L264.401 60.9989C265.099 61.004 265.729 61.6435 265.725 62.3415L265.417 104.997C265.415 105.352 265.269 105.704 265.015 105.952L252.931 117.862C252.682 118.1 252.337 118.236 251.991 118.23L221.333 118.01ZM222.685 115.353L250.678 115.555L250.754 104.891C250.759 104.193 251.399 103.563 252.097 103.568L262.761 103.644L263.049 63.6552L223.06 63.3671L222.685 115.353ZM260.867 106.297L253.357 113.699L253.411 106.243L260.867 106.297Z" fill="#004A94"/>
<path d="M228.238 84.733C227.502 84.7277 226.909 84.1266 226.915 83.3904C226.92 82.6542 227.521 82.0617 228.257 82.067L252.251 82.2399C252.987 82.2452 253.58 82.8463 253.574 83.5825C253.569 84.3187 252.968 84.9111 252.232 84.9058L228.238 84.733Z" fill="#004A94"/>
<path d="M228.315 74.0694C227.578 74.0641 226.986 73.463 226.991 72.7268C226.997 71.9906 227.598 71.3982 228.334 71.4035L257.659 71.6147C258.396 71.62 258.988 72.2211 258.983 72.9573C258.977 73.6935 258.376 74.286 257.64 74.2807L228.315 74.0694Z" fill="#004A94"/>
</g>
<g opacity="0.3">
<path fill-rule="evenodd" clip-rule="evenodd" d="M304.411 121.681C303.652 121.673 303.008 120.89 303.015 120.255L303.64 62.4109C303.648 61.6722 304.327 61.0074 305.066 61.0153L350.212 61.5027C350.951 61.5107 351.616 62.19 351.608 62.9287L351.121 108.075C351.116 108.451 350.961 108.824 350.691 109.085L337.856 121.645C337.591 121.896 337.225 122.038 336.86 122.031L304.411 121.681ZM305.852 118.874L335.48 119.194L335.602 107.908C335.61 107.169 336.289 106.504 337.028 106.512L348.314 106.634L348.771 64.3089L306.446 63.852L305.852 118.874ZM346.3 109.434L338.323 117.241L338.408 109.349L346.3 109.434Z" fill="#004A94"/>
<path d="M311.846 86.4862C311.067 86.4778 310.442 85.8393 310.451 85.0601C310.459 84.2809 311.097 83.6561 311.877 83.6645L337.272 83.9387C338.051 83.9471 338.676 84.5855 338.667 85.3647C338.659 86.1439 338.02 86.7687 337.241 86.7603L311.846 86.4862Z" fill="#004A94"/>
<path d="M311.967 75.1996C311.188 75.1911 310.563 74.5527 310.572 73.7735C310.58 72.9943 311.219 72.3695 311.998 72.3779L343.036 72.713C343.815 72.7214 344.44 73.3598 344.432 74.139C344.423 74.9182 343.785 75.543 343.006 75.5346L311.967 75.1996Z" fill="#004A94"/>
</g>
<g opacity="0.3">
<path fill-rule="evenodd" clip-rule="evenodd" d="M473.333 118.014C472.616 118.007 472.007 117.267 472.014 116.667L472.604 62.0168C472.612 61.3189 473.254 60.6908 473.952 60.6982L516.606 61.1587C517.303 61.1663 517.932 61.8081 517.924 62.506L517.464 105.16C517.46 105.515 517.313 105.867 517.058 106.114L504.932 117.981C504.681 118.218 504.335 118.352 503.99 118.345L473.333 118.014ZM474.695 115.363L502.686 115.665L502.801 105.001C502.809 104.304 503.451 103.675 504.149 103.683L514.812 103.798L515.244 63.8101L475.256 63.3784L474.695 115.363ZM512.909 106.444L505.373 113.819L505.453 106.363L512.909 106.444Z" fill="#004A94"/>
<path d="M480.358 84.7629C479.621 84.755 479.031 84.1518 479.039 83.4156C479.047 82.6794 479.65 82.0891 480.386 82.0971L504.379 82.3561C505.115 82.364 505.706 82.9672 505.698 83.7034C505.69 84.4396 505.087 85.0299 504.35 85.0219L480.358 84.7629Z" fill="#004A94"/>
<path d="M480.472 74.0994C479.736 74.0914 479.146 73.4882 479.154 72.752C479.162 72.0158 479.765 71.4255 480.501 71.4335L509.826 71.7501C510.562 71.758 511.152 72.3612 511.144 73.0974C511.136 73.8336 510.533 74.4239 509.797 74.4159L480.472 74.0994Z" fill="#004A94"/>
</g>
<g opacity="0.3">
<path fill-rule="evenodd" clip-rule="evenodd" d="M390.333 118.01C389.616 118.004 389.005 117.267 389.01 116.667L389.403 62.015C389.408 61.317 390.048 60.6866 390.746 60.6916L433.401 60.9989C434.099 61.004 434.729 61.6435 434.725 62.3415L434.417 104.997C434.415 105.352 434.269 105.704 434.015 105.952L421.931 117.862C421.682 118.1 421.337 118.236 420.991 118.23L390.333 118.01ZM391.685 115.353L419.678 115.555L419.754 104.891C419.76 104.193 420.399 103.563 421.097 103.568L431.761 103.645L432.049 63.6552L392.06 63.3672L391.685 115.353ZM429.867 106.297L422.357 113.699L422.411 106.243L429.867 106.297Z" fill="#004A94"/>
<path d="M397.238 84.733C396.502 84.7277 395.909 84.1266 395.915 83.3904C395.92 82.6542 396.521 82.0617 397.257 82.067L421.251 82.2399C421.987 82.2452 422.58 82.8463 422.574 83.5825C422.569 84.3187 421.968 84.9111 421.232 84.9058L397.238 84.733Z" fill="#004A94"/>
<path d="M397.315 74.0694C396.579 74.0641 395.986 73.463 395.991 72.7268C395.997 71.9906 396.598 71.3982 397.334 71.4035L426.659 71.6147C427.396 71.62 427.988 72.2211 427.983 72.9573C427.977 73.6935 427.376 74.286 426.64 74.2807L397.315 74.0694Z" fill="#004A94"/>
</g>
<rect x="44" y="5" width="124" height="185" rx="8" fill="#F1F7FB" stroke="#5C91B5" stroke-opacity="0.15" stroke-width="10"/>
<ellipse cx="66.5856" cy="30.5366" rx="3.98571" ry="5.10736" fill="#DFE8EF"/>
<ellipse cx="85.6283" cy="30.5366" rx="3.98571" ry="5.10736" fill="#DFE8EF"/>
<ellipse cx="104.671" cy="30.5366" rx="3.98571" ry="5.10736" fill="#DFE8EF"/>
<rect x="119.728" y="25.4292" width="37.6429" height="10.2147" rx="5.10736" fill="#DFE8EF"/>
<ellipse cx="66.5856" cy="94.0949" rx="3.98571" ry="5.10736" fill="#DFE8EF"/>
<ellipse cx="85.6283" cy="94.0949" rx="3.98571" ry="5.10736" fill="#DFE8EF"/>
<ellipse cx="104.671" cy="94.0949" rx="3.98571" ry="5.10736" fill="#DFE8EF"/>
<rect x="119.728" y="88.9875" width="37.6429" height="10.2147" rx="5.10736" fill="#DFE8EF"/>
<ellipse cx="66.5856" cy="157.086" rx="3.98571" ry="5.10736" fill="#DFE8EF"/>
<ellipse cx="85.6283" cy="157.086" rx="3.98571" ry="5.10736" fill="#DFE8EF"/>
<ellipse cx="104.671" cy="157.086" rx="3.98571" ry="5.10736" fill="#DFE8EF"/>
<rect x="119.728" y="151.979" width="37.6429" height="10.2147" rx="5.10736" fill="#DFE8EF"/>
<path d="M44 59.4785H168" stroke="#5C91B5" stroke-opacity="0.15" stroke-width="10"/>
<path d="M44 130.414H168" stroke="#5C91B5" stroke-opacity="0.15" stroke-width="10"/>
</svg>
