<svg width="872" height="514" viewBox="0 0 872 514" fill="none" xmlns="http://www.w3.org/2000/svg">
<g opacity="0.5">
<circle cx="236.465" cy="182.324" r="91.2535" fill="#F1F7FB" stroke="#5C91B5" stroke-opacity="0.15" stroke-width="4"/>
<circle cx="703.648" cy="168.352" r="166.352" fill="#F1F7FB" stroke="#5C91B5" stroke-opacity="0.15" stroke-width="4"/>
<circle cx="410.5" cy="158.5" r="122.5" fill="white" stroke="#5C91B5" stroke-opacity="0.15" stroke-width="4"/>
<circle cx="400.634" cy="256.549" r="58.9437" fill="#F1F7FB" stroke="#5C91B5" stroke-opacity="0.15" stroke-width="4"/>
<path d="M863.887 333.824C847.774 352.631 811.293 382.852 794.278 353.28C777.262 323.708 746.582 337.715 732.402 343.552C703.398 355.491 677.514 375.192 653 347.443C622.062 312.423 599.628 334.473 585.449 347.443C566.113 363.007 544.656 384.447 500.183 359.155C446.479 328.613 442.549 348.921 410.676 370.944C391.839 383.959 367.014 370.944 349.549 353.28C332.085 335.616 309.904 318.54 277.07 353.28C244.237 388.019 208.821 362.096 194.986 340.38C185.089 324.846 149.403 306.27 105.042 343.552C60.6817 380.834 17.8638 352.601 2 333.824" stroke="#95BBD4" stroke-width="4"/>
<path d="M670.028 358.718L624.933 172.533L633.483 158.514L780.176 122.969L838.93 357.116" stroke="#95BBD4" stroke-width="2"/>
<rect x="636.673" y="171.679" width="27.0914" height="27.0914" transform="rotate(-13.6209 636.673 171.679)" stroke="#95BBD4" stroke-width="2"/>
<rect x="647.61" y="216.815" width="27.0914" height="27.0914" transform="rotate(-13.6209 647.61 216.815)" stroke="#95BBD4" stroke-width="2"/>
<rect x="657.636" y="258.19" width="27.0914" height="27.0914" transform="rotate(-13.6209 657.636 258.19)" stroke="#95BBD4" stroke-width="2"/>
<rect x="667.661" y="299.565" width="27.0914" height="27.0914" transform="rotate(-13.6209 667.661 299.565)" stroke="#95BBD4" stroke-width="2"/>
<rect x="670.525" y="163.476" width="27.0914" height="27.0914" transform="rotate(-13.6209 670.525 163.476)" stroke="#95BBD4" stroke-width="2"/>
<rect x="681.462" y="208.612" width="27.0914" height="27.0914" transform="rotate(-13.6209 681.462 208.612)" stroke="#95BBD4" stroke-width="2"/>
<rect x="691.488" y="249.987" width="27.0914" height="27.0914" transform="rotate(-13.6209 691.488 249.987)" stroke="#95BBD4" stroke-width="2"/>
<rect x="701.514" y="291.362" width="27.0914" height="27.0914" transform="rotate(-13.6209 701.514 291.362)" stroke="#95BBD4" stroke-width="2"/>
<rect x="704.377" y="155.274" width="27.0914" height="27.0914" transform="rotate(-13.6209 704.377 155.274)" stroke="#95BBD4" stroke-width="2"/>
<rect x="715.314" y="200.41" width="27.0914" height="27.0914" transform="rotate(-13.6209 715.314 200.41)" stroke="#95BBD4" stroke-width="2"/>
<rect x="725.34" y="241.784" width="27.0914" height="27.0914" transform="rotate(-13.6209 725.34 241.784)" stroke="#95BBD4" stroke-width="2"/>
<rect x="735.366" y="283.159" width="27.0914" height="27.0914" transform="rotate(-13.6209 735.366 283.159)" stroke="#95BBD4" stroke-width="2"/>
<rect x="738.23" y="147.071" width="27.0914" height="27.0914" transform="rotate(-13.6209 738.23 147.071)" stroke="#95BBD4" stroke-width="2"/>
<rect x="749.167" y="192.207" width="27.0914" height="27.0914" transform="rotate(-13.6209 749.167 192.207)" stroke="#95BBD4" stroke-width="2"/>
<rect x="759.192" y="233.582" width="27.0914" height="27.0914" transform="rotate(-13.6209 759.192 233.582)" stroke="#95BBD4" stroke-width="2"/>
<rect x="769.218" y="274.956" width="27.0914" height="27.0914" transform="rotate(-13.6209 769.218 274.956)" stroke="#95BBD4" stroke-width="2"/>
<path d="M415.042 367.887L506.775 165.654L603.816 209.362L530.31 369.634" stroke="#95BBD4" stroke-width="4"/>
<path d="M415.042 367.771L506.775 165.538L603.816 209.245L530.31 369.517" stroke="#95BBD4" stroke-width="4"/>
<path d="M474.423 347.366C450.67 335.141 424.648 356.535 414.606 368.76L506.732 166.605L603.225 209.831L528.563 371.817C518.085 371.817 504.113 362.648 474.423 347.366Z" fill="#F1F7FB" stroke="#5C91B5" stroke-opacity="0.15" stroke-width="4"/>
<rect x="513.948" y="178.395" width="27.0914" height="27.0914" transform="rotate(24.2468 513.948 178.395)" stroke="#95BBD4" stroke-width="2"/>
<rect x="573.52" y="204.844" width="15.8457" height="159.857" transform="rotate(24.2468 573.52 204.844)" stroke="#95BBD4" stroke-width="2"/>
<rect x="499.644" y="210.154" width="27.0914" height="27.0914" transform="rotate(24.2468 499.644 210.154)" stroke="#95BBD4" stroke-width="2"/>
<rect x="485.34" y="241.913" width="27.0914" height="27.0914" transform="rotate(24.2468 485.34 241.913)" stroke="#95BBD4" stroke-width="2"/>
<rect x="471.036" y="273.672" width="27.0914" height="27.0914" transform="rotate(24.2468 471.036 273.672)" stroke="#95BBD4" stroke-width="2"/>
<rect x="456.731" y="305.431" width="27.0914" height="27.0914" transform="rotate(24.2468 456.731 305.431)" stroke="#95BBD4" stroke-width="2"/>
<path d="M593.23 204.593C602.885 183.156 593.334 157.949 571.896 148.294C550.458 138.638 525.252 148.189 515.597 169.627" stroke="#95BBD4" stroke-width="4"/>
<path d="M571.145 148.59C550.94 139.49 527.185 148.491 518.085 168.696L591.251 201.65C600.351 181.445 591.349 157.69 571.145 148.59Z" fill="#F1F7FB" stroke="#5C91B5" stroke-opacity="0.15" stroke-width="4"/>
<path d="M378.803 371.817L293.618 200.937L272.088 211.091L247.865 159.732L210.188 177.502L203.107 197.364L277.507 352.169" stroke="#95BBD4" stroke-width="2"/>
<path d="M293.885 200.13L379.07 371.01C368 371.01 318 340 318 340C318 340 296 330 277.775 351.362L203.375 196.557L210.456 176.695L248.132 158.925L272.356 210.284L293.885 200.13Z" fill="#F1F7FB" stroke="#5C91B5" stroke-opacity="0.15" stroke-width="4"/>
<rect x="217.43" y="201.12" width="10.4789" height="147.577" transform="rotate(-25.2509 217.43 201.12)" stroke="#95BBD4" stroke-width="2"/>
<rect x="232.02" y="176.783" width="10.4789" height="163.365" transform="rotate(-25.2509 232.02 176.783)" stroke="#95BBD4" stroke-width="2"/>
<rect x="283.214" y="216.312" width="8.35373" height="136.089" transform="rotate(-25.2509 283.214 216.312)" stroke="#95BBD4" stroke-width="2"/>
</g>
<path d="M13 455L370 455" stroke="#D2EDFF" stroke-width="4" stroke-linecap="round"/>
<path d="M385 455L417 455" stroke="#D2EDFF" stroke-width="4" stroke-linecap="round"/>
<path d="M436 455L453 455" stroke="#D2EDFF" stroke-width="4" stroke-linecap="round"/>
<path d="M471 455L479 455" stroke="#D2EDFF" stroke-width="4" stroke-linecap="round"/>
<rect x="122.604" y="104.544" width="2.37139" height="7.11416" transform="rotate(45 122.604 104.544)" fill="#D9D9D9"/>
<rect x="124.281" y="109.575" width="2.37139" height="7.11416" transform="rotate(135 124.281 109.575)" fill="#D9D9D9"/>
<rect x="122.604" y="1.67688" width="2.37139" height="7.11416" transform="rotate(45 122.604 1.67688)" fill="#D9D9D9"/>
<rect x="124.281" y="6.70715" width="2.37139" height="7.11416" transform="rotate(135 124.281 6.70715)" fill="#D9D9D9"/>
<path d="M339 199.47V143.425L382.182 103H435.47L477.732 143.425V199.47L435.47 238.976H378.507L339 199.47Z" fill="#DFF2FF" stroke="#5C91B5"/>
<path d="M396.846 399C396.846 336.516 396.846 301.484 396.846 239H418.846V407.5" stroke="#5C91B5"/>
<path d="M417.846 240H397.846V398L407.5 404L417.846 408V240Z" fill="#ADD4EF"/>
<path d="M402.346 402.043C377.846 385.543 366.846 399.543 366.846 399.543C371.295 397.362 384.623 396 402.346 408C424.5 423 442.692 406.085 447.846 397.543C447.846 397.543 426.846 418.543 402.346 402.043Z" fill="#ADD4EF"/>
<path d="M357.375 191.772V150.875L388.832 121.375H427.651L458.438 150.875V191.772L427.651 220.601H386.155L357.375 191.772Z" fill="#FAFDFF" stroke="#5C91B5"/>
<path d="M376.916 181.392C375.348 181.392 373.901 181.14 372.576 180.636C371.25 180.132 370.093 179.423 369.104 178.508C368.133 177.575 367.377 176.492 366.836 175.26C366.294 174.028 366.024 172.675 366.024 171.2C366.024 169.725 366.294 168.372 366.836 167.14C367.377 165.908 368.133 164.835 369.104 163.92C370.093 162.987 371.25 162.268 372.576 161.764C373.901 161.26 375.348 161.008 376.916 161.008C378.502 161.008 379.949 161.26 381.256 161.764C382.581 162.268 383.729 162.987 384.7 163.92C385.67 164.835 386.426 165.908 386.968 167.14C387.528 168.372 387.808 169.725 387.808 171.2C387.808 172.675 387.528 174.037 386.968 175.288C386.426 176.52 385.67 177.593 384.7 178.508C383.729 179.423 382.581 180.132 381.256 180.636C379.949 181.14 378.502 181.392 376.916 181.392ZM376.916 176.8C377.662 176.8 378.353 176.669 378.988 176.408C379.641 176.147 380.201 175.773 380.668 175.288C381.153 174.784 381.526 174.187 381.788 173.496C382.068 172.805 382.208 172.04 382.208 171.2C382.208 170.341 382.068 169.576 381.788 168.904C381.526 168.213 381.153 167.625 380.668 167.14C380.201 166.636 379.641 166.253 378.988 165.992C378.353 165.731 377.662 165.6 376.916 165.6C376.169 165.6 375.469 165.731 374.816 165.992C374.181 166.253 373.621 166.636 373.136 167.14C372.669 167.625 372.296 168.213 372.016 168.904C371.754 169.576 371.624 170.341 371.624 171.2C371.624 172.04 371.754 172.805 372.016 173.496C372.296 174.187 372.669 174.784 373.136 175.288C373.621 175.773 374.181 176.147 374.816 176.408C375.469 176.669 376.169 176.8 376.916 176.8ZM400.595 181.392C399.027 181.392 397.581 181.14 396.255 180.636C394.93 180.132 393.773 179.423 392.783 178.508C391.813 177.575 391.057 176.492 390.515 175.26C389.974 174.028 389.703 172.675 389.703 171.2C389.703 169.725 389.974 168.372 390.515 167.14C391.057 165.908 391.813 164.835 392.783 163.92C393.773 162.987 394.93 162.268 396.255 161.764C397.581 161.26 399.027 161.008 400.595 161.008C402.182 161.008 403.629 161.26 404.935 161.764C406.261 162.268 407.409 162.987 408.379 163.92C409.35 164.835 410.106 165.908 410.647 167.14C411.207 168.372 411.487 169.725 411.487 171.2C411.487 172.675 411.207 174.037 410.647 175.288C410.106 176.52 409.35 177.593 408.379 178.508C407.409 179.423 406.261 180.132 404.935 180.636C403.629 181.14 402.182 181.392 400.595 181.392ZM400.595 176.8C401.342 176.8 402.033 176.669 402.667 176.408C403.321 176.147 403.881 175.773 404.347 175.288C404.833 174.784 405.206 174.187 405.467 173.496C405.747 172.805 405.887 172.04 405.887 171.2C405.887 170.341 405.747 169.576 405.467 168.904C405.206 168.213 404.833 167.625 404.347 167.14C403.881 166.636 403.321 166.253 402.667 165.992C402.033 165.731 401.342 165.6 400.595 165.6C399.849 165.6 399.149 165.731 398.495 165.992C397.861 166.253 397.301 166.636 396.815 167.14C396.349 167.625 395.975 168.213 395.695 168.904C395.434 169.576 395.303 170.341 395.303 171.2C395.303 172.04 395.434 172.805 395.695 173.496C395.975 174.187 396.349 174.784 396.815 175.288C397.301 175.773 397.861 176.147 398.495 176.408C399.149 176.669 399.849 176.8 400.595 176.8ZM414.391 181V161.4H423.351C425.143 161.4 426.683 161.689 427.971 162.268C429.278 162.847 430.286 163.687 430.995 164.788C431.704 165.871 432.059 167.159 432.059 168.652C432.059 170.127 431.704 171.405 430.995 172.488C430.286 173.571 429.278 174.411 427.971 175.008C426.683 175.587 425.143 175.876 423.351 175.876H417.471L419.935 173.468V181H414.391ZM419.935 174.056L417.471 171.508H423.015C424.172 171.508 425.031 171.256 425.591 170.752C426.17 170.248 426.459 169.548 426.459 168.652C426.459 167.737 426.17 167.028 425.591 166.524C425.031 166.02 424.172 165.768 423.015 165.768H417.471L419.935 163.22V174.056ZM441.924 181.392C440.318 181.392 438.769 181.196 437.276 180.804C435.801 180.393 434.597 179.871 433.664 179.236L435.484 175.148C436.361 175.708 437.369 176.175 438.508 176.548C439.665 176.903 440.813 177.08 441.952 177.08C442.717 177.08 443.333 177.015 443.8 176.884C444.266 176.735 444.602 176.548 444.808 176.324C445.032 176.081 445.144 175.801 445.144 175.484C445.144 175.036 444.938 174.681 444.528 174.42C444.117 174.159 443.585 173.944 442.932 173.776C442.278 173.608 441.55 173.44 440.748 173.272C439.964 173.104 439.17 172.889 438.368 172.628C437.584 172.367 436.865 172.031 436.212 171.62C435.558 171.191 435.026 170.64 434.616 169.968C434.205 169.277 434 168.409 434 167.364C434 166.188 434.317 165.124 434.952 164.172C435.605 163.22 436.576 162.455 437.864 161.876C439.152 161.297 440.757 161.008 442.68 161.008C443.968 161.008 445.228 161.157 446.46 161.456C447.71 161.736 448.821 162.156 449.792 162.716L448.084 166.832C447.15 166.328 446.226 165.955 445.312 165.712C444.397 165.451 443.51 165.32 442.652 165.32C441.886 165.32 441.27 165.404 440.804 165.572C440.337 165.721 440.001 165.927 439.796 166.188C439.59 166.449 439.488 166.748 439.488 167.084C439.488 167.513 439.684 167.859 440.076 168.12C440.486 168.363 441.018 168.568 441.672 168.736C442.344 168.885 443.072 169.044 443.856 169.212C444.658 169.38 445.452 169.595 446.236 169.856C447.038 170.099 447.766 170.435 448.42 170.864C449.073 171.275 449.596 171.825 449.988 172.516C450.398 173.188 450.604 174.037 450.604 175.064C450.604 176.203 450.277 177.257 449.624 178.228C448.989 179.18 448.028 179.945 446.74 180.524C445.47 181.103 443.865 181.392 441.924 181.392Z" fill="#000203"/>
<path d="M283.381 302.201L315.7 299L348.869 302.201L359.075 434.258H335.261L327.607 423.854H315.7H306.344L297.839 434.258H274.025L283.381 302.201Z" fill="#90CAF1"/>
<path d="M315.7 299L283.381 302.201L274.025 434.258H297.839L306.344 423.854H315.7M315.7 299L348.869 302.201L359.075 434.258H335.261L327.607 423.854H315.7M315.7 299V423.854" stroke="#033B74" stroke-width="0.5"/>
<path d="M297.988 436.363H274.363L272 461H361.438L359.075 435.35H335.45L327.35 445.813H307.438L297.988 436.363Z" fill="url(#paint0_linear_224_1808)"/>
<path d="M315 300L283.98 303.148L275 433H297.857L306.02 422.769H315V300Z" fill="#D2EDFF"/>
<path d="M279 363L316 363.5L353.5 363" stroke="#043363" stroke-width="0.5"/>
<path d="M278 376.5L315.77 377L354.5 376.5" stroke="#043363" stroke-width="0.5"/>
<path d="M353 363.631H279.5L278.502 376.437L354 376.437L353 363.631Z" fill="#F1F7FB"/>
<path d="M292.356 363.631H286.403L283.851 376.437H289.805L292.356 363.631Z" fill="black"/>
<path d="M304.263 363.631H298.31L295.758 376.437H301.712L304.263 363.631Z" fill="black"/>
<path d="M316.17 363.631H310.217L307.665 376.437H313.619L316.17 363.631Z" fill="black"/>
<path d="M328.077 363.631H322.124L319.572 376.437H325.526L328.077 363.631Z" fill="black"/>
<path d="M339.984 363.631H334.031L331.479 376.437H337.433L339.984 363.631Z" fill="black"/>
<path d="M351.891 363.631H345.938L343.386 376.437H349.34L351.891 363.631Z" fill="black"/>
<g filter="url(#filter0_i_224_1808)">
<path d="M336.111 314.051H296.138V322.854C296.138 326.696 300.674 327.123 302.942 326.856H325.905C334.07 326.856 336.111 324.188 336.111 322.854V314.051Z" fill="white"/>
</g>
<path d="M336.111 314.051H296.138V322.854C296.138 326.696 300.674 327.123 302.942 326.856H325.905C334.07 326.856 336.111 324.188 336.111 322.854V314.051Z" stroke="#043363" stroke-width="0.5"/>
<path d="M352.5 364L315 364.5V377.5H353.5L352.5 364Z" fill="#ADD4EF" fill-opacity="0.37"/>
<path d="M186.171 506.32C184.421 506.32 182.747 506.075 181.147 505.584C179.547 505.072 178.277 504.421 177.339 503.632L178.779 500.4C179.675 501.104 180.784 501.691 182.107 502.16C183.429 502.629 184.784 502.864 186.171 502.864C187.344 502.864 188.293 502.736 189.019 502.48C189.744 502.224 190.277 501.883 190.619 501.456C190.96 501.008 191.131 500.507 191.131 499.952C191.131 499.269 190.885 498.725 190.395 498.32C189.904 497.893 189.264 497.563 188.475 497.328C187.707 497.072 186.843 496.837 185.883 496.624C184.944 496.411 183.995 496.165 183.035 495.888C182.096 495.589 181.232 495.216 180.443 494.768C179.675 494.299 179.045 493.68 178.555 492.912C178.064 492.144 177.819 491.163 177.819 489.968C177.819 488.752 178.139 487.643 178.779 486.64C179.44 485.616 180.432 484.805 181.755 484.208C183.099 483.589 184.795 483.28 186.843 483.28C188.187 483.28 189.52 483.451 190.843 483.792C192.165 484.133 193.317 484.624 194.299 485.264L192.987 488.496C191.984 487.899 190.949 487.461 189.883 487.184C188.816 486.885 187.792 486.736 186.811 486.736C185.659 486.736 184.72 486.875 183.995 487.152C183.291 487.429 182.768 487.792 182.427 488.24C182.107 488.688 181.947 489.2 181.947 489.776C181.947 490.459 182.181 491.013 182.651 491.44C183.141 491.845 183.771 492.165 184.539 492.4C185.328 492.635 186.203 492.869 187.163 493.104C188.123 493.317 189.072 493.563 190.011 493.84C190.971 494.117 191.835 494.48 192.603 494.928C193.392 495.376 194.021 495.984 194.491 496.752C194.981 497.52 195.227 498.491 195.227 499.664C195.227 500.859 194.896 501.968 194.235 502.992C193.595 503.995 192.603 504.805 191.259 505.424C189.915 506.021 188.219 506.32 186.171 506.32ZM209.848 506.32C208.098 506.32 206.488 506.032 205.016 505.456C203.544 504.88 202.264 504.08 201.176 503.056C200.088 502.011 199.245 500.795 198.648 499.408C198.05 498 197.752 496.464 197.752 494.8C197.752 493.136 198.05 491.611 198.648 490.224C199.245 488.816 200.088 487.6 201.176 486.576C202.264 485.531 203.544 484.72 205.016 484.144C206.488 483.568 208.088 483.28 209.816 483.28C211.565 483.28 213.165 483.568 214.616 484.144C216.088 484.72 217.368 485.531 218.456 486.576C219.544 487.6 220.386 488.816 220.984 490.224C221.581 491.611 221.88 493.136 221.88 494.8C221.88 496.464 221.581 498 220.984 499.408C220.386 500.816 219.544 502.032 218.456 503.056C217.368 504.08 216.088 504.88 214.616 505.456C213.165 506.032 211.576 506.32 209.848 506.32ZM209.816 502.672C210.946 502.672 211.992 502.48 212.952 502.096C213.912 501.712 214.744 501.168 215.448 500.464C216.152 499.739 216.696 498.907 217.08 497.968C217.485 497.008 217.688 495.952 217.688 494.8C217.688 493.648 217.485 492.603 217.08 491.664C216.696 490.704 216.152 489.872 215.448 489.168C214.744 488.443 213.912 487.888 212.952 487.504C211.992 487.12 210.946 486.928 209.816 486.928C208.685 486.928 207.64 487.12 206.68 487.504C205.741 487.888 204.909 488.443 204.184 489.168C203.48 489.872 202.925 490.704 202.52 491.664C202.136 492.603 201.944 493.648 201.944 494.8C201.944 495.931 202.136 496.976 202.52 497.936C202.925 498.896 203.48 499.739 204.184 500.464C204.888 501.168 205.72 501.712 206.68 502.096C207.64 502.48 208.685 502.672 209.816 502.672ZM226.289 506V483.6H229.713L239.505 499.952H237.713L247.345 483.6H250.769L250.801 506H246.865L246.833 489.776H247.665L239.473 503.44H237.617L229.297 489.776H230.257V506H226.289ZM260.692 492.912H271.828V496.336H260.692V492.912ZM261.012 502.512H273.652V506H256.852V483.6H273.204V487.088H261.012V502.512ZM282.833 506V487.12H275.409V483.6H294.417V487.12H286.993V506H282.833ZM313.283 483.6H317.443V506H313.283V483.6ZM301.699 506H297.539V483.6H301.699V506ZM313.603 496.4H301.347V492.848H313.603V496.4ZM323.446 506V483.6H327.606V506H323.446ZM333.664 506V483.6H337.088L351.136 500.848H349.44V483.6H353.568V506H350.144L336.096 488.752H337.792V506H333.664ZM370.035 506.32C368.285 506.32 366.675 506.043 365.203 505.488C363.752 504.912 362.483 504.112 361.395 503.088C360.307 502.043 359.464 500.816 358.867 499.408C358.269 498 357.971 496.464 357.971 494.8C357.971 493.136 358.269 491.6 358.867 490.192C359.464 488.784 360.307 487.568 361.395 486.544C362.504 485.499 363.795 484.699 365.267 484.144C366.739 483.568 368.349 483.28 370.099 483.28C371.997 483.28 373.704 483.589 375.219 484.208C376.755 484.827 378.045 485.733 379.091 486.928L376.467 489.488C375.592 488.613 374.643 487.973 373.619 487.568C372.616 487.141 371.507 486.928 370.291 486.928C369.117 486.928 368.029 487.12 367.027 487.504C366.024 487.888 365.16 488.432 364.435 489.136C363.709 489.84 363.144 490.672 362.739 491.632C362.355 492.592 362.163 493.648 362.163 494.8C362.163 495.931 362.355 496.976 362.739 497.936C363.144 498.896 363.709 499.739 364.435 500.464C365.16 501.168 366.013 501.712 366.995 502.096C367.976 502.48 369.064 502.672 370.259 502.672C371.368 502.672 372.435 502.501 373.458 502.16C374.504 501.797 375.496 501.2 376.435 500.368L378.803 503.472C377.629 504.411 376.264 505.125 374.707 505.616C373.171 506.085 371.613 506.32 370.035 506.32ZM374.867 502.928V494.544H378.803V503.472L374.867 502.928ZM398.413 506L390.989 483.6H395.309L401.933 503.856H399.789L406.669 483.6H410.509L417.197 503.856H415.117L421.901 483.6H425.869L418.445 506H414.029L407.917 487.728H409.069L402.861 506H398.413ZM433.098 492.912H444.234V496.336H433.098V492.912ZM433.418 502.512H446.058V506H429.258V483.6H445.61V487.088H433.418V502.512ZM450.696 506V483.6H454.12L468.168 500.848H466.472V483.6H470.6V506H467.176L453.128 488.752H454.824V506H450.696ZM481.146 506V487.12H473.722V483.6H492.73V487.12H485.306V506H481.146ZM509.976 506L502.552 483.6H506.872L513.496 503.856H511.352L518.232 483.6H522.072L528.76 503.856H526.68L533.464 483.6H537.432L530.008 506H525.592L519.48 487.728H520.632L514.424 506H509.976ZM540.821 506V483.6H550.037C552.021 483.6 553.717 483.92 555.125 484.56C556.554 485.2 557.653 486.117 558.421 487.312C559.189 488.507 559.573 489.925 559.573 491.568C559.573 493.211 559.189 494.629 558.421 495.824C557.653 496.997 556.554 497.904 555.125 498.544C553.717 499.163 552.021 499.472 550.037 499.472H543.125L544.981 497.584V506H540.821ZM555.477 506L549.813 497.872H554.26L559.957 506H555.477ZM544.981 498.032L543.125 496.048H549.845C551.679 496.048 553.055 495.653 553.972 494.864C554.911 494.075 555.381 492.976 555.381 491.568C555.381 490.139 554.911 489.04 553.972 488.272C553.055 487.504 551.679 487.12 549.845 487.12H543.125L544.981 485.072V498.032ZM574.723 506.32C572.973 506.32 571.363 506.032 569.891 505.456C568.419 504.88 567.139 504.08 566.051 503.056C564.963 502.011 564.12 500.795 563.523 499.408C562.925 498 562.627 496.464 562.627 494.8C562.627 493.136 562.925 491.611 563.523 490.224C564.12 488.816 564.963 487.6 566.051 486.576C567.139 485.531 568.419 484.72 569.891 484.144C571.363 483.568 572.963 483.28 574.691 483.28C576.44 483.28 578.04 483.568 579.491 484.144C580.963 484.72 582.243 485.531 583.331 486.576C584.419 487.6 585.261 488.816 585.859 490.224C586.456 491.611 586.755 493.136 586.755 494.8C586.755 496.464 586.456 498 585.859 499.408C585.261 500.816 584.419 502.032 583.331 503.056C582.243 504.08 580.963 504.88 579.491 505.456C578.04 506.032 576.451 506.32 574.723 506.32ZM574.691 502.672C575.821 502.672 576.867 502.48 577.827 502.096C578.787 501.712 579.619 501.168 580.323 500.464C581.027 499.739 581.571 498.907 581.955 497.968C582.36 497.008 582.563 495.952 582.563 494.8C582.563 493.648 582.36 492.603 581.955 491.664C581.571 490.704 581.027 489.872 580.323 489.168C579.619 488.443 578.787 487.888 577.827 487.504C576.867 487.12 575.821 486.928 574.691 486.928C573.56 486.928 572.515 487.12 571.555 487.504C570.616 487.888 569.784 488.443 569.059 489.168C568.355 489.872 567.8 490.704 567.395 491.664C567.011 492.603 566.819 493.648 566.819 494.8C566.819 495.931 567.011 496.976 567.395 497.936C567.8 498.896 568.355 499.739 569.059 500.464C569.763 501.168 570.595 501.712 571.555 502.096C572.515 502.48 573.56 502.672 574.691 502.672ZM591.164 506V483.6H594.588L608.636 500.848H606.94V483.6H611.068V506H607.644L593.596 488.752H595.292V506H591.164ZM627.535 506.32C625.785 506.32 624.175 506.043 622.703 505.488C621.252 504.912 619.983 504.112 618.895 503.088C617.807 502.043 616.964 500.816 616.367 499.408C615.769 498 615.471 496.464 615.471 494.8C615.471 493.136 615.769 491.6 616.367 490.192C616.964 488.784 617.807 487.568 618.895 486.544C620.004 485.499 621.295 484.699 622.767 484.144C624.239 483.568 625.849 483.28 627.599 483.28C629.497 483.28 631.204 483.589 632.719 484.208C634.255 484.827 635.545 485.733 636.591 486.928L633.967 489.488C633.092 488.613 632.143 487.973 631.119 487.568C630.116 487.141 629.007 486.928 627.791 486.928C626.617 486.928 625.529 487.12 624.527 487.504C623.524 487.888 622.66 488.432 621.935 489.136C621.209 489.84 620.644 490.672 620.239 491.632C619.855 492.592 619.663 493.648 619.663 494.8C619.663 495.931 619.855 496.976 620.239 497.936C620.644 498.896 621.209 499.739 621.935 500.464C622.66 501.168 623.513 501.712 624.495 502.096C625.476 502.48 626.564 502.672 627.759 502.672C628.868 502.672 629.935 502.501 630.958 502.16C632.004 501.797 632.996 501.2 633.935 500.368L636.303 503.472C635.129 504.411 633.764 505.125 632.207 505.616C630.671 506.085 629.113 506.32 627.535 506.32ZM632.367 502.928V494.544H636.303V503.472L632.367 502.928Z" fill="black"/>
<defs>
<filter id="filter0_i_224_1808" x="295.888" y="313.801" width="40.4735" height="13.3695" filterUnits="userSpaceOnUse" color-interpolation-filters="sRGB">
<feFlood flood-opacity="0" result="BackgroundImageFix"/>
<feBlend mode="normal" in="SourceGraphic" in2="BackgroundImageFix" result="shape"/>
<feColorMatrix in="SourceAlpha" type="matrix" values="0 0 0 0 0 0 0 0 0 0 0 0 0 0 0 0 0 0 127 0" result="hardAlpha"/>
<feOffset dx="2" dy="2"/>
<feComposite in2="hardAlpha" operator="arithmetic" k2="-1" k3="1"/>
<feColorMatrix type="matrix" values="0 0 0 0 0 0 0 0 0 0 0 0 0 0 0 0 0 0 0.25 0"/>
<feBlend mode="normal" in2="shape" result="effect1_innerShadow_224_1808"/>
</filter>
<linearGradient id="paint0_linear_224_1808" x1="316.719" y1="435.35" x2="316.719" y2="461" gradientUnits="userSpaceOnUse">
<stop stop-color="#95BBD4" stop-opacity="0.44"/>
<stop offset="1" stop-color="white" stop-opacity="0"/>
</linearGradient>
</defs>
</svg>
