<?xml version="1.0" encoding="UTF-8" standalone="no"?>
<!DOCTYPE svg PUBLIC "-//W3C//DTD SVG 1.1//EN"
 "http://www.w3.org/Graphics/SVG/1.1/DTD/svg11.dtd">
<!-- Generated by graphviz version 2.47.0 (20210316.0004)
 -->
<!-- Title: dependencies Pages: 1 -->
<svg width="1452pt" height="284pt"
 viewBox="0.00 0.00 1452.00 284.00" xmlns="http://www.w3.org/2000/svg" xmlns:xlink="http://www.w3.org/1999/xlink">
<g id="graph0" class="graph" transform="scale(1 1) rotate(0) translate(4 280)">
<title>dependencies</title>
<polygon fill="white" stroke="transparent" points="-4,4 -4,-280 1448,-280 1448,4 -4,4"/>
<text text-anchor="start" x="701.01" y="-42.4" font-family="Times-12" font-weight="bold" font-size="14.00">Legend</text>
<polygon fill="#ffffb3" stroke="transparent" points="488,-10 488,-30 508,-30 508,-10 488,-10"/>
<text text-anchor="start" x="511.63" y="-15.4" font-family="Times-12" font-size="14.00"> &#160;Declarations</text>
<polygon fill="#8dd3c7" stroke="transparent" points="601,-10 601,-30 621,-30 621,-10 601,-10"/>
<text text-anchor="start" x="624.73" y="-15.4" font-family="Times-12" font-size="14.00"> &#160;Module</text>
<polygon fill="#80b1d3" stroke="transparent" points="687,-10 687,-30 707,-30 707,-10 687,-10"/>
<text text-anchor="start" x="710.78" y="-15.4" font-family="Times-12" font-size="14.00"> &#160;Bootstrap</text>
<polygon fill="#fdb462" stroke="transparent" points="784,-10 784,-30 804,-30 804,-10 784,-10"/>
<text text-anchor="start" x="807.67" y="-15.4" font-family="Times-12" font-size="14.00"> &#160;Providers</text>
<polygon fill="#fb8072" stroke="transparent" points="880,-10 880,-30 900,-30 900,-10 880,-10"/>
<text text-anchor="start" x="903.73" y="-15.4" font-family="Times-12" font-size="14.00"> &#160;Exports</text>
<g id="clust1" class="cluster">
<title>cluster_HomeModule</title>
<polygon fill="none" stroke="black" stroke-dasharray="1,5" points="8,-70 8,-268 1436,-268 1436,-70 8,-70"/>
</g>
<g id="clust9" class="cluster">
<title>cluster_HomeModule_imports</title>
<polygon fill="none" stroke="black" points="1003,-78 1003,-130 1428,-130 1428,-78 1003,-78"/>
</g>
<g id="clust10" class="cluster">
<title>cluster_HomeModule_exports</title>
<polygon fill="none" stroke="black" points="695,-208 695,-260 831,-260 831,-208 695,-208"/>
</g>
<g id="clust2" class="cluster">
<title>cluster_HomeModule_declarations</title>
<polygon fill="none" stroke="black" points="16,-78 16,-130 995,-130 995,-78 16,-78"/>
</g>
<!-- CarBrandsComponent -->
<g id="node1" class="node">
<title>CarBrandsComponent</title>
<polygon fill="#ffffb3" stroke="black" points="986.7,-122 845.3,-122 845.3,-86 986.7,-86 986.7,-122"/>
<text text-anchor="middle" x="916" y="-99.8" font-family="Times,serif" font-size="14.00">CarBrandsComponent</text>
</g>
<!-- HomeModule -->
<g id="node7" class="node">
<title>HomeModule</title>
<polygon fill="#8dd3c7" stroke="black" points="809.76,-187 806.76,-191 785.76,-191 782.76,-187 716.24,-187 716.24,-151 809.76,-151 809.76,-187"/>
<text text-anchor="middle" x="763" y="-164.8" font-family="Times,serif" font-size="14.00">HomeModule</text>
</g>
<!-- CarBrandsComponent&#45;&gt;HomeModule -->
<g id="edge1" class="edge">
<title>CarBrandsComponent&#45;&gt;HomeModule</title>
<path fill="none" stroke="black" d="M916,-122.01C916,-138.05 916,-159 916,-159 916,-159 820.15,-159 820.15,-159"/>
<polygon fill="black" stroke="black" points="820.15,-155.5 810.15,-159 820.15,-162.5 820.15,-155.5"/>
</g>
<!-- CarsListComponent -->
<g id="node2" class="node">
<title>CarsListComponent</title>
<polygon fill="#ffffb3" stroke="black" points="827.27,-122 698.73,-122 698.73,-86 827.27,-86 827.27,-122"/>
<text text-anchor="middle" x="763" y="-99.8" font-family="Times,serif" font-size="14.00">CarsListComponent</text>
</g>
<!-- CarsListComponent&#45;&gt;HomeModule -->
<g id="edge2" class="edge">
<title>CarsListComponent&#45;&gt;HomeModule</title>
<path fill="none" stroke="black" d="M763,-122.11C763,-122.11 763,-140.99 763,-140.99"/>
<polygon fill="black" stroke="black" points="759.5,-140.99 763,-150.99 766.5,-140.99 759.5,-140.99"/>
</g>
<!-- CarsdataCardComponent -->
<g id="node3" class="node">
<title>CarsdataCardComponent</title>
<polygon fill="#ffffb3" stroke="black" points="680.52,-122 523.48,-122 523.48,-86 680.52,-86 680.52,-122"/>
<text text-anchor="middle" x="602" y="-99.8" font-family="Times,serif" font-size="14.00">CarsdataCardComponent</text>
</g>
<!-- CarsdataCardComponent&#45;&gt;HomeModule -->
<g id="edge3" class="edge">
<title>CarsdataCardComponent&#45;&gt;HomeModule</title>
<path fill="none" stroke="black" d="M602,-122.01C602,-138.05 602,-159 602,-159 602,-159 706,-159 706,-159"/>
<polygon fill="black" stroke="black" points="706,-162.5 716,-159 706,-155.5 706,-162.5"/>
</g>
<!-- DataNotFoundComponent -->
<g id="node4" class="node">
<title>DataNotFoundComponent</title>
<polygon fill="#ffffb3" stroke="black" points="505.04,-122 340.96,-122 340.96,-86 505.04,-86 505.04,-122"/>
<text text-anchor="middle" x="423" y="-99.8" font-family="Times,serif" font-size="14.00">DataNotFoundComponent</text>
</g>
<!-- DataNotFoundComponent&#45;&gt;HomeModule -->
<g id="edge4" class="edge">
<title>DataNotFoundComponent&#45;&gt;HomeModule</title>
<path fill="none" stroke="black" d="M423,-122.27C423,-140.56 423,-166 423,-166 423,-166 706.08,-166 706.08,-166"/>
<polygon fill="black" stroke="black" points="706.08,-169.5 716.08,-166 706.08,-162.5 706.08,-169.5"/>
</g>
<!-- HomeComponent -->
<g id="node5" class="node">
<title>HomeComponent</title>
<polygon fill="#ffffb3" stroke="black" points="322.55,-122 207.45,-122 207.45,-86 322.55,-86 322.55,-122"/>
<text text-anchor="middle" x="265" y="-99.8" font-family="Times,serif" font-size="14.00">HomeComponent</text>
</g>
<!-- HomeComponent&#45;&gt;HomeModule -->
<g id="edge5" class="edge">
<title>HomeComponent&#45;&gt;HomeModule</title>
<path fill="none" stroke="black" d="M265,-122.13C265,-142.57 265,-173 265,-173 265,-173 706.15,-173 706.15,-173"/>
<polygon fill="black" stroke="black" points="706.15,-176.5 716.15,-173 706.15,-169.5 706.15,-176.5"/>
</g>
<!-- PageNotFoundComponent -->
<g id="node6" class="node">
<title>PageNotFoundComponent</title>
<polygon fill="#ffffb3" stroke="black" points="189.82,-122 24.18,-122 24.18,-86 189.82,-86 189.82,-122"/>
<text text-anchor="middle" x="107" y="-99.8" font-family="Times,serif" font-size="14.00">PageNotFoundComponent</text>
</g>
<!-- PageNotFoundComponent&#45;&gt;HomeModule -->
<g id="edge6" class="edge">
<title>PageNotFoundComponent&#45;&gt;HomeModule</title>
<path fill="none" stroke="black" d="M107,-122.01C107,-144.49 107,-180 107,-180 107,-180 706.09,-180 706.09,-180"/>
<polygon fill="black" stroke="black" points="706.09,-183.5 716.09,-180 706.09,-176.5 706.09,-183.5"/>
</g>
<!-- HomeComponent  -->
<g id="node11" class="node">
<title>HomeComponent </title>
<polygon fill="#fb8072" stroke="black" points="822.54,-252 703.46,-252 703.46,-216 822.54,-216 822.54,-252"/>
<text text-anchor="middle" x="763" y="-229.8" font-family="Times,serif" font-size="14.00">HomeComponent </text>
</g>
<!-- HomeModule&#45;&gt;HomeComponent  -->
<g id="edge10" class="edge">
<title>HomeModule&#45;&gt;HomeComponent </title>
<path fill="none" stroke="black" stroke-dasharray="5,2" d="M763,-187.11C763,-187.11 763,-205.99 763,-205.99"/>
<polygon fill="black" stroke="black" points="759.5,-205.99 763,-215.99 766.5,-205.99 759.5,-205.99"/>
</g>
<!-- HomeRoutingModule -->
<g id="node8" class="node">
<title>HomeRoutingModule</title>
<polygon fill="#8dd3c7" stroke="black" points="1420.38,-122 1417.38,-126 1396.38,-126 1393.38,-122 1281.62,-122 1281.62,-86 1420.38,-86 1420.38,-122"/>
<text text-anchor="middle" x="1351" y="-99.8" font-family="Times,serif" font-size="14.00">HomeRoutingModule</text>
</g>
<!-- HomeRoutingModule&#45;&gt;HomeModule -->
<g id="edge7" class="edge">
<title>HomeRoutingModule&#45;&gt;HomeModule</title>
<path fill="none" stroke="black" d="M1351,-122.01C1351,-144.49 1351,-180 1351,-180 1351,-180 820.12,-180 820.12,-180"/>
<polygon fill="black" stroke="black" points="820.12,-176.5 810.12,-180 820.12,-183.5 820.12,-176.5"/>
</g>
<!-- MaterialModule -->
<g id="node9" class="node">
<title>MaterialModule</title>
<polygon fill="#8dd3c7" stroke="black" points="1263.47,-122 1260.47,-126 1239.47,-126 1236.47,-122 1156.53,-122 1156.53,-86 1263.47,-86 1263.47,-122"/>
<text text-anchor="middle" x="1210" y="-99.8" font-family="Times,serif" font-size="14.00">MaterialModule</text>
</g>
<!-- MaterialModule&#45;&gt;HomeModule -->
<g id="edge8" class="edge">
<title>MaterialModule&#45;&gt;HomeModule</title>
<path fill="none" stroke="black" d="M1210,-122.13C1210,-142.57 1210,-173 1210,-173 1210,-173 819.99,-173 819.99,-173"/>
<polygon fill="black" stroke="black" points="819.99,-169.5 809.99,-173 819.99,-176.5 819.99,-169.5"/>
</g>
<!-- NgOptimizedImage -->
<g id="node10" class="node">
<title>NgOptimizedImage</title>
<polygon fill="#8dd3c7" stroke="black" points="1138.69,-122 1135.69,-126 1114.69,-126 1111.69,-122 1011.31,-122 1011.31,-86 1138.69,-86 1138.69,-122"/>
<text text-anchor="middle" x="1075" y="-99.8" font-family="Times,serif" font-size="14.00">NgOptimizedImage</text>
</g>
<!-- NgOptimizedImage&#45;&gt;HomeModule -->
<g id="edge9" class="edge">
<title>NgOptimizedImage&#45;&gt;HomeModule</title>
<path fill="none" stroke="black" d="M1075,-122.27C1075,-140.56 1075,-166 1075,-166 1075,-166 820.05,-166 820.05,-166"/>
<polygon fill="black" stroke="black" points="820.05,-162.5 810.05,-166 820.05,-169.5 820.05,-162.5"/>
</g>
</g>
</svg>
